<svg width="48" height="40" viewBox="0 0 48 40" fill="#DBD1C7" xmlns="http://www.w3.org/2000/svg">
<path d="M47.5996 11.3237C47.5165 12.0714 47.3919 12.819 47.3504 13.5666C46.935 17.8448 46.5612 22.1229 46.1459 26.4011C45.8551 29.6409 45.5228 32.8806 45.2321 36.1619C45.0659 37.9895 43.4461 39.2771 41.4524 39.0694C36.2604 38.4879 31.027 37.9064 25.835 37.3249C19.937 36.6603 13.9974 35.9958 8.09941 35.3312C7.01949 35.2066 5.93957 35.1235 4.85965 34.9574C3.48898 34.7497 2.49213 33.6283 2.32598 32.2576C2.32598 32.0914 2.15984 31.8422 1.9937 31.8007C0.706102 31.1777 0.0415354 30.1393 0 28.7271C0 26.1519 0 23.5767 0 21.043C0 15.3527 0 9.62077 0 3.93041C0 1.6875 1.2876 0.399902 3.53051 0.399902C15.4512 0.399902 27.3719 0.399902 39.2925 0.399902C40.9955 0.399902 42.2 1.27215 42.6154 2.80896C42.6984 3.18278 42.74 3.5566 42.74 3.97195C42.74 5.09341 42.74 6.21486 42.74 7.37786C43.4045 7.46093 44.0276 7.544 44.6506 7.62707C46.1459 7.87628 47.0597 8.74852 47.4335 10.2438C47.4335 10.2853 47.475 10.3269 47.5165 10.3684C47.5996 10.5761 47.5996 10.9499 47.5996 11.3237ZM1.66142 12.196C1.66142 12.4036 1.66142 12.5283 1.66142 12.6529C1.66142 17.9279 1.66142 23.2029 1.66142 28.4779C1.66142 29.7655 2.24291 30.347 3.57205 30.347C15.4927 30.347 27.4134 30.347 39.3341 30.347C40.6632 30.347 41.2447 29.7655 41.2447 28.4363C41.2447 23.1613 41.2447 17.9279 41.2447 12.6529C41.2447 12.4867 41.2447 12.3206 41.2032 12.1544C28.0364 12.196 14.8697 12.196 1.66142 12.196ZM42.823 8.74853C42.823 8.99774 42.823 9.16388 42.823 9.37156C42.823 15.6849 42.823 22.0399 42.823 28.3533C42.823 28.9347 42.74 29.5578 42.4907 30.0977C41.9093 31.4269 40.7463 31.9253 39.3341 31.9253C27.7457 31.9253 16.1573 31.9253 4.5689 31.9253C4.36122 31.9253 4.19508 31.9253 3.9874 31.9253C4.15354 32.8391 4.61043 33.2544 5.48268 33.379C6.64567 33.5036 7.80866 33.6283 8.97165 33.7529C12.1283 34.1267 15.285 34.459 18.4002 34.8328C21.5569 35.2066 24.7136 35.5389 27.8287 35.9127C30.7362 36.245 33.6852 36.5773 36.5927 36.9096C38.2957 37.1172 39.9986 37.2834 41.7016 37.491C42.74 37.6157 43.4461 36.9926 43.5707 35.9958C43.6537 35.2897 43.6953 34.542 43.7784 33.8359C44.0691 30.6792 44.3598 27.5225 44.6506 24.3658C44.8998 21.5414 45.1906 18.717 45.4398 15.8511C45.6059 14.1066 45.7721 12.3621 45.9382 10.5761C46.0213 9.74538 45.4813 9.03927 44.7752 8.91467C44.1937 8.8316 43.5291 8.8316 42.823 8.74853ZM1.70295 10.5345C14.9112 10.5345 28.078 10.5345 41.2447 10.5345C41.2447 8.9562 41.2447 7.41939 41.2447 5.84104C28.0364 5.84104 14.8697 5.84104 1.70295 5.84104C1.70295 7.41939 1.70295 8.9562 1.70295 10.5345ZM41.2032 4.22116C41.4524 2.68435 40.6632 1.85364 39.1679 1.85364C27.2888 1.89518 15.4512 1.89518 3.57205 1.85364C2.28445 1.85364 1.37067 2.68435 1.70295 4.22116C14.8697 4.22116 28.0364 4.22116 41.2032 4.22116Z" fill="#DBD1C7"/>
<path d="M31.7329 27.1902C29.7392 27.1902 27.704 27.1902 25.7103 27.1902C24.8796 27.1902 24.6304 26.941 24.6304 26.1103C24.6304 23.9089 24.6304 21.7075 24.6304 19.5477C24.6304 18.7585 24.8796 18.5093 25.6688 18.5093C29.6977 18.5093 33.7682 18.5093 37.7971 18.5093C38.5863 18.5093 38.8355 18.7585 38.8355 19.5477C38.8355 21.749 38.8355 23.9504 38.8355 26.1933C38.8355 26.9825 38.5863 27.2317 37.7971 27.2317C35.8034 27.1902 33.7682 27.1902 31.7329 27.1902ZM37.2571 25.6118C37.2571 23.7843 37.2571 21.9567 37.2571 20.1292C37.1741 20.1292 37.091 20.0876 36.9664 20.0876C33.519 20.0876 30.03 20.0876 26.5825 20.0876C26.2087 20.0876 26.1672 20.2538 26.1672 20.5445C26.1672 22.1229 26.1672 23.7012 26.1672 25.2796C26.1672 25.4042 26.2087 25.5288 26.2087 25.6534C29.9054 25.6118 33.5605 25.6118 37.2571 25.6118Z" fill="#DBD1C7"/>
<path d="M9.17929 20.0461C7.51788 20.0461 5.85646 20.0461 4.15351 20.0461C3.69662 20.0461 3.36433 19.9215 3.23973 19.4231C3.15665 19.0077 3.36433 18.5924 3.82122 18.5093C4.0289 18.4678 4.23658 18.4678 4.40272 18.4678C7.55941 18.4678 10.7576 18.4678 13.9143 18.4678C14.0805 18.4678 14.2882 18.4678 14.4543 18.5093C14.8696 18.5924 15.0773 18.8831 15.0773 19.2985C15.0773 19.7138 14.8281 19.963 14.3712 20.0461C14.2051 20.0461 14.0805 20.0461 13.9143 20.0461C12.3775 20.0461 10.7576 20.0461 9.17929 20.0461Z" fill="#DBD1C7"/>
<path d="M7.18549 16.8894C6.18864 16.8894 5.19179 16.8894 4.1534 16.8894C3.57191 16.8894 3.23962 16.5986 3.23962 16.1417C3.23962 15.6433 3.57191 15.311 4.1534 15.311C6.18864 15.311 8.22388 15.311 10.2176 15.311C10.8406 15.311 11.1314 15.6018 11.1314 16.1417C11.1314 16.6402 10.8406 16.8894 10.2176 16.8894C9.22073 16.8894 8.22388 16.8894 7.18549 16.8894Z" fill="#DBD1C7"/>
<path d="M16.6558 16.8894C15.6589 16.8894 14.6621 16.8894 13.7068 16.8894C13.0837 16.8894 12.793 16.6402 12.7515 16.1002C12.7515 15.5602 13.0422 15.311 13.7068 15.311C15.7005 15.311 17.6942 15.311 19.6879 15.311C20.3109 15.311 20.6432 15.6018 20.6432 16.1002C20.6432 16.5986 20.3109 16.8894 19.6879 16.8894C18.691 16.8894 17.6942 16.8894 16.6558 16.8894Z" fill="#DBD1C7"/>
<path d="M18.6909 20.046C18.2755 20.046 17.8602 20.046 17.4448 20.046C16.9879 20.0045 16.7387 19.7552 16.6972 19.2984C16.6556 18.883 16.9464 18.5092 17.3618 18.5092C18.234 18.4676 19.1062 18.4676 19.9785 18.5092C20.3938 18.5092 20.643 18.9245 20.643 19.2984C20.6015 19.7137 20.3523 20.0045 19.8954 20.0045C19.5216 20.0875 19.1062 20.046 18.6909 20.046Z" fill="#DBD1C7"/>
</svg>
