<svg width="29" height="23" viewBox="0 0 29 23" fill="none" xmlns="http://www.w3.org/2000/svg">
<path d="M0.00207771 0.900398C0.313727 0.233461 0.842492 -0.0230529 1.61123 0.00161194C2.84328 0.0410757 4.07741 0.0124645 5.3105 0.0124645C6.25584 0.0124645 6.62566 0.28279 6.86252 1.14014C7.12846 2.10503 7.40686 3.06597 7.65514 4.0348C7.72786 4.31796 7.86291 4.38899 8.15794 4.388C11.663 4.37715 15.168 4.3811 18.673 4.3811H19.1083C19.0366 10.937 22.3463 14.9554 29 16.5754C28.9533 17.3587 28.5793 17.7267 27.61 17.8826C28.0952 19.9012 27.61 21.3456 26.1391 22.3045C25.4813 22.7337 24.7014 22.9623 23.9033 22.9598C23.1052 22.9574 22.3269 22.724 21.6721 22.2907C20.2105 21.3229 19.7274 19.8667 20.2177 17.8737H17.3443C17.9157 19.8163 17.4264 21.4344 15.5482 22.4742C14.1198 23.2635 12.6311 23.156 11.3077 22.2069C9.76813 21.1019 9.4222 19.6013 9.95719 17.8658C9.1199 17.8432 8.74072 17.3854 8.54127 16.6484C7.29467 12.0341 6.01587 7.42868 4.76512 2.81537C4.66851 2.45724 4.51476 2.35858 4.14182 2.37042C3.31075 2.39805 2.47969 2.34674 1.64862 2.38917C0.869501 2.42863 0.314766 2.18001 0 1.49137L0.00207771 0.900398ZM12.2156 19.2155C12.2124 19.394 12.2466 19.5713 12.3161 19.7371C12.3856 19.903 12.489 20.0541 12.6204 20.1818C12.7518 20.3094 12.9085 20.411 13.0816 20.4807C13.2546 20.5504 13.4405 20.5868 13.6284 20.5879C14.0076 20.5921 14.3732 20.4539 14.6456 20.2033C14.918 19.9527 15.0751 19.6101 15.0828 19.25C15.0851 19.0684 15.0497 18.8881 14.9786 18.7195C14.9074 18.5509 14.802 18.3972 14.6682 18.2674C14.5345 18.1375 14.3751 18.034 14.1992 17.9627C14.0232 17.8915 13.8342 17.8538 13.643 17.852C13.2637 17.8544 12.9009 17.999 12.6335 18.2544C12.3661 18.5099 12.2159 18.8553 12.2156 19.2155V19.2155ZM23.891 20.5879C24.0786 20.5916 24.2651 20.5602 24.4398 20.4954C24.6145 20.4305 24.7741 20.3335 24.9092 20.2099C25.0443 20.0863 25.1524 19.9386 25.2273 19.7752C25.3022 19.6119 25.3423 19.4361 25.3454 19.2579C25.3519 18.9882 25.274 18.7228 25.1214 18.4952C24.9689 18.2677 24.7486 18.0883 24.4885 17.9799C24.2284 17.8714 23.9403 17.8388 23.6606 17.8861C23.381 17.9335 23.1225 18.0586 22.9179 18.2457C22.7132 18.4328 22.5718 18.6735 22.5114 18.9371C22.451 19.2007 22.4744 19.4753 22.5787 19.7263C22.6829 19.9772 22.8633 20.1931 23.097 20.3465C23.3306 20.4999 23.607 20.5839 23.891 20.5879Z" fill="#DBD1C7"/>
</svg>
