<svg width="10" height="12" viewBox="0 0 10 12" fill="none" xmlns="http://www.w3.org/2000/svg">
<path d="M2.89659 11.1749C2.74587 11.1252 2.58554 11.0943 2.44646 11.0222C2.0199 10.8016 1.79411 10.4376 1.74174 9.96334C1.62651 8.92322 1.51158 7.88311 1.39694 6.84299C1.2918 5.89017 1.18725 4.93657 1.08328 3.98219C1.02712 3.47329 0.968925 2.96439 0.910731 2.44588H0V1.57821H2.60329C2.61231 1.41585 2.60882 1.26338 2.63239 1.1147C2.6778 0.804109 2.83395 0.5204 3.07206 0.315871C3.31017 0.111341 3.61419 -0.000222196 3.92807 0.00174581C4.50632 -0.000581937 5.08448 -0.000581937 5.66254 0.00174581C6.39752 0.00465549 6.97189 0.583683 6.97742 1.31983C6.97742 1.39927 6.97742 1.4787 6.97742 1.57007H9.59003V2.44006H8.67959C8.65747 2.63181 8.63536 2.81395 8.61499 2.99639C8.51451 3.90305 8.41432 4.80951 8.31442 5.71578C8.21743 6.6044 8.11996 7.49302 8.022 8.38163C7.96002 8.94117 7.90561 9.50215 7.82909 10.0596C7.74936 10.6398 7.32455 11.0559 6.74348 11.1569C6.7261 11.1614 6.70916 11.1674 6.69285 11.1749H2.89659ZM1.79702 2.45083C1.79702 2.47701 1.79702 2.49796 1.80051 2.51862C1.83097 2.80028 1.86162 3.08203 1.89246 3.36389C1.97529 4.11866 2.05831 4.87353 2.14153 5.62849C2.22591 6.39413 2.31058 7.15976 2.39554 7.9254C2.46887 8.58997 2.54103 9.25483 2.61639 9.91911C2.62733 10.0257 2.67796 10.1242 2.75823 10.1952C2.83851 10.2661 2.94253 10.3043 3.04964 10.302C4.21351 10.3038 5.37739 10.3038 6.54126 10.302C6.64804 10.3032 6.75149 10.2649 6.83166 10.1943C6.91182 10.1238 6.96302 10.0261 6.97538 9.91998C6.98586 9.84433 6.99197 9.7681 7.00012 9.69216C7.07771 8.99868 7.15443 8.3053 7.23027 7.61202C7.31349 6.85725 7.3968 6.10238 7.48022 5.34742C7.55664 4.65414 7.63317 3.96076 7.70979 3.26728C7.73889 2.99726 7.76798 2.72754 7.79853 2.45257L1.79702 2.45083ZM6.10335 1.56861C6.10335 1.46415 6.10888 1.36959 6.10335 1.2759C6.09659 1.16924 6.05001 1.06901 5.97284 0.99507C5.89567 0.921132 5.79354 0.878881 5.68669 0.876688C5.09408 0.872032 4.50138 0.872032 3.90858 0.876688C3.80726 0.877594 3.70967 0.914979 3.63368 0.981992C3.55769 1.049 3.50839 1.14116 3.49482 1.24156C3.48085 1.34747 3.4922 1.45688 3.4922 1.5689L6.10335 1.56861Z" fill="#D0D0D0"/>
<path d="M3.4917 4.19702H4.35093V8.54933H3.4917V4.19702Z" fill="#D0D0D0"/>
<path d="M5.23926 4.19653H6.09878V8.54709H5.23926V4.19653Z" fill="#D0D0D0"/>
</svg>
