<svg width="38" height="39" viewBox="0 0 38 39" fill="none" xmlns="http://www.w3.org/2000/svg">
<path d="M16.0934 38.7551C11.067 38.7551 6.07789 38.7551 1.05154 38.7551C0.232427 38.7551 0.0090332 38.5689 0.0090332 37.7498C0.0090332 33.7659 0.0090332 29.7821 0.0090332 25.7982C0.0090332 25.0164 0.232427 24.793 0.977072 24.793C11.0298 24.793 21.0825 24.793 31.1724 24.793C31.9543 24.793 32.1777 25.0164 32.1777 25.761C32.1777 29.7821 32.1777 33.7659 32.1777 37.787C32.1777 38.5689 31.9543 38.7923 31.2097 38.7923C26.1833 38.7551 21.1197 38.7551 16.0934 38.7551ZM18.8858 26.2078C17.0242 26.2078 15.1626 26.2078 13.3382 26.2078C13.3382 29.931 13.3382 33.6542 13.3382 37.3402C15.1998 37.3402 17.0242 37.3402 18.8858 37.3402C18.8858 33.617 18.8858 29.931 18.8858 26.2078ZM9.0937 28.2556C8.90754 28.2556 8.75861 28.2556 8.57245 28.2556C6.71084 28.2556 4.81199 28.2556 2.95038 28.2556C2.3919 28.2556 2.01957 27.8832 2.13127 27.4365C2.24297 27.0269 2.54083 26.878 2.95038 26.878C4.84923 26.878 6.74807 26.878 8.60968 26.878C8.75861 26.878 8.90754 26.878 9.05647 26.878C9.05647 26.6173 9.05647 26.4312 9.05647 26.2078C6.48745 26.2078 3.95565 26.2078 1.42386 26.2078C1.42386 29.931 1.42386 33.6542 1.42386 37.3402C3.99288 37.3402 6.52468 37.3402 9.05647 37.3402C9.05647 37.1168 9.05647 36.8935 9.05647 36.6701C8.87031 36.6701 8.72138 36.6701 8.57245 36.6701C6.7853 36.6701 4.99816 36.6701 3.21101 36.6701C3.09931 36.6701 3.02485 36.6701 2.91315 36.6701C2.42913 36.6701 2.13127 36.4094 2.13127 35.9999C2.13127 35.5903 2.42913 35.2925 2.91315 35.2925C4.81199 35.2925 6.71084 35.2925 8.64692 35.2925C8.79585 35.2925 8.94478 35.2925 9.0937 35.2925C9.0937 35.0318 9.0937 34.8084 9.0937 34.5851C7.49272 34.5851 5.92896 34.5851 4.36521 34.5851C3.84396 34.5851 3.5461 34.2872 3.5461 33.8776C3.5461 33.4681 3.84396 33.2075 4.32797 33.2075C5.25878 33.2075 6.15236 33.2075 7.08316 33.2075C7.75334 33.2075 8.42352 33.2075 9.0937 33.2075C9.0937 32.9468 9.0937 32.7607 9.0937 32.5C8.90754 32.5 8.75861 32.5 8.60968 32.5C6.74807 32.5 4.84923 32.5 2.98761 32.5C2.50359 32.5 2.20574 32.2767 2.1685 31.9043C2.09404 31.4575 2.42913 31.1225 2.98761 31.1225C4.88646 31.1225 6.7853 31.1225 8.64692 31.1225C8.79585 31.1225 8.94477 31.1225 9.13094 31.1225C9.13094 30.8618 9.13094 30.6757 9.13094 30.415C8.94477 30.415 8.79585 30.415 8.64692 30.415C7.23209 30.415 5.81727 30.415 4.40244 30.415C3.88119 30.415 3.5461 30.1172 3.5461 29.7076C3.5461 29.2981 3.88119 29.0374 4.40244 29.0374C5.59387 29.0374 6.74807 29.0374 7.9395 29.0374C8.31183 29.0374 8.72138 29.0374 9.13094 29.0374C9.0937 28.7396 9.0937 28.5162 9.0937 28.2556ZM23.1303 37.303C25.6993 37.303 28.2311 37.303 30.7629 37.303C30.7629 33.5798 30.7629 29.8938 30.7629 26.1706C28.1938 26.1706 25.6621 26.1706 23.1303 26.1706C23.1303 26.394 23.1303 26.6173 23.1303 26.8407C24.3217 26.8407 25.4759 26.8407 26.5929 26.8407C27.5237 26.8407 28.4172 26.8407 29.3481 26.8407C29.7948 26.8407 30.0927 27.1386 30.0555 27.5482C30.0555 27.9205 29.7576 28.1811 29.3481 28.2183C29.2364 28.2183 29.1247 28.2183 29.013 28.2183C27.2258 28.2183 25.4014 28.2183 23.6143 28.2183C23.4654 28.2183 23.3164 28.2183 23.1303 28.2183C23.1303 28.479 23.1303 28.6651 23.1303 28.9257C24.7313 28.9257 26.2578 28.9257 27.8215 28.9257C28.38 28.9257 28.6779 29.1864 28.6779 29.6332C28.6779 30.0799 28.3428 30.3406 27.7843 30.3406C26.3695 30.3406 24.9546 30.3406 23.5398 30.3406C23.3909 30.3406 23.242 30.3406 23.093 30.3406C23.093 30.6012 23.093 30.7874 23.093 31.048C23.2792 31.048 23.4281 31.048 23.5771 31.048C25.4387 31.048 27.3375 31.048 29.1991 31.048C29.6831 31.048 29.981 31.2714 30.0182 31.6437C30.0927 32.0905 29.7576 32.4256 29.1991 32.4256C27.3003 32.4256 25.4014 32.4256 23.5398 32.4256C23.3909 32.4256 23.242 32.4256 23.0558 32.4256C23.0558 32.6862 23.0558 32.8724 23.0558 33.133C23.242 33.133 23.3909 33.133 23.5398 33.133C24.9546 33.133 26.3695 33.133 27.7843 33.133C28.3055 33.133 28.6034 33.3936 28.6406 33.8032C28.6406 34.25 28.3428 34.5106 27.7843 34.5106C26.4439 34.5106 25.0663 34.5106 23.726 34.5106C23.5026 34.5106 23.3164 34.5106 23.093 34.5106C23.093 34.7712 23.093 34.9946 23.093 35.218C23.2792 35.218 23.4281 35.218 23.6143 35.218C25.4387 35.218 27.3003 35.218 29.1247 35.218C29.7576 35.218 30.0927 35.4786 30.0555 35.9254C30.0555 36.3722 29.7204 36.5956 29.1247 36.5956C27.263 36.5956 25.4387 36.5956 23.5771 36.5956C23.4281 36.5956 23.2792 36.5956 23.093 36.5956C23.1303 36.8935 23.1303 37.0796 23.1303 37.303ZM11.8861 26.2078C11.4021 26.2078 10.9553 26.2078 10.5085 26.2078C10.5085 29.931 10.5085 33.617 10.5085 37.3402C10.9553 37.3402 11.4021 37.3402 11.8861 37.3402C11.8861 33.617 11.8861 29.931 11.8861 26.2078ZM21.6782 37.3402C21.6782 33.617 21.6782 29.8938 21.6782 26.2078C21.2314 26.2078 20.7846 26.2078 20.3378 26.2078C20.3378 29.931 20.3378 33.617 20.3378 37.3402C20.7846 37.3402 21.1942 37.3402 21.6782 37.3402Z" fill="#DBD1C7"/>
<path d="M15.4235 9.2676C14.7905 9.0442 14.1948 8.85804 13.6735 8.70911C11.7002 10.6452 9.68969 12.6557 7.75362 14.5918C7.90255 15.262 8.12594 15.8949 8.16317 16.5651C8.16317 17.1981 7.90255 17.8682 7.79085 18.5012C7.71638 18.5384 7.64192 18.5757 7.56746 18.5757C7.71638 18.6501 7.86531 18.7246 7.97701 18.8363C9.24291 20.1022 10.5088 21.3681 11.7747 22.634C11.8492 22.7084 11.9609 22.8201 12.0353 22.9318C12.296 23.2669 12.296 23.6392 12.0353 23.8999C11.7375 24.1605 11.3651 24.1605 11.0673 23.8999C10.9928 23.8254 10.9556 23.7882 10.8811 23.7137C9.39184 22.2244 7.90255 20.7351 6.41326 19.2458C5.892 18.7246 5.892 18.5012 6.33879 17.9427C7.00897 17.1236 7.00897 16.0439 6.33879 15.2248C5.892 14.7035 5.92924 14.4429 6.41326 13.9589C8.60996 11.7622 10.8067 9.56545 13.0034 7.36875C13.4874 6.88473 13.7108 6.88473 14.2693 7.29429C14.6044 7.51768 15.0139 7.66661 15.4607 7.89C15.4607 6.17732 15.4607 4.57633 15.4607 3.04981C10.8811 7.51768 6.33879 12.06 1.79646 16.6024C1.87092 16.6768 1.98262 16.7885 2.09431 16.9002C3.99316 18.7991 5.92924 20.7351 7.82808 22.634C7.93978 22.7457 8.05147 22.8201 8.12594 22.9691C8.34933 23.2669 8.3121 23.6392 8.05148 23.8999C7.79085 24.1605 7.49299 24.1605 7.1579 23.9743C7.0462 23.8999 6.93451 23.7882 6.82281 23.6765C4.70057 21.5542 2.57833 19.432 0.418863 17.2725C-0.139621 16.714 -0.139621 16.4162 0.418863 15.8577C5.14736 11.1292 9.87586 6.43794 14.5299 1.74668C15.0511 1.22543 15.5724 0.964803 16.2798 1.00203C17.0617 1.03927 17.8808 1.00203 18.6627 1.00203C24.6571 1.00203 30.6887 1.00203 36.6831 1.00203C37.5394 1.00203 37.7256 1.1882 37.7256 2.04454C37.7256 13.9216 37.7256 25.7987 37.7256 37.6758C37.7256 38.5322 37.5394 38.7183 36.6831 38.7183C35.6778 38.7183 34.7098 38.7183 33.7045 38.7183C33.146 38.7183 32.8482 38.4577 32.8482 38.0109C32.8482 37.5641 33.1833 37.3035 33.7045 37.3035C34.5236 37.3035 35.38 37.3035 36.1991 37.3035C36.2363 37.3035 36.2363 37.3035 36.3108 37.2663C36.3108 25.6498 36.3108 14.0333 36.3108 2.37963C29.7951 2.37963 23.3167 2.37963 16.7638 2.37963C16.7638 2.56579 16.7638 2.71472 16.7638 2.90088C16.7638 9.52822 16.7638 16.1928 16.7638 22.8201C16.7638 22.9318 16.7638 23.0063 16.7638 23.118C16.7638 23.7137 16.5032 24.0488 16.0564 24.0488C15.6096 24.0488 15.349 23.7137 15.349 23.118C15.349 18.6501 15.349 14.145 15.349 9.67715C15.4235 9.52822 15.4235 9.37929 15.4235 9.2676Z" fill="#DBD1C7"/>
<path d="M33.5552 31.7931C33.5552 23.8254 33.5552 15.8949 33.5552 7.92721C32.1032 7.55489 31.2096 6.62408 30.8373 5.20926C28.0076 5.20926 25.178 5.20926 22.3483 5.20926C21.976 6.66132 21.0452 7.55489 19.5931 7.92721C19.5931 8.11338 19.5931 8.29954 19.5931 8.44847C19.5931 13.2887 19.5931 18.1289 19.5931 23.0063C19.5931 23.1552 19.5931 23.3041 19.5931 23.4531C19.5186 23.8254 19.2953 24.0488 18.9229 24.0488C18.5506 24.0488 18.29 23.8254 18.2528 23.4531C18.2155 23.3414 18.2528 23.1924 18.2528 23.0435C18.2528 17.9055 18.2528 12.7302 18.2528 7.59212C18.2528 6.81025 18.4017 6.66132 19.1836 6.58685C20.1888 6.47516 20.9707 5.65605 21.0452 4.65078C21.1196 4.01783 21.3058 3.79443 21.9387 3.79443C25.0663 3.79443 28.1938 3.79443 31.3213 3.79443C31.9542 3.79443 32.1776 4.01783 32.2148 4.61354C32.2893 5.69328 33.1084 6.51239 34.1882 6.58685C34.7839 6.62409 35.0073 6.84748 35.0073 7.48043C35.0073 15.746 35.0073 23.9743 35.0073 32.2399C35.0073 32.8728 34.8211 33.0962 34.1509 33.1335C34.0392 33.1335 33.9275 33.1707 33.8158 33.2079C33.4063 33.2824 33.0712 33.0962 32.9595 32.7611C32.8478 32.3888 32.9967 32.091 33.4063 31.9048C33.4435 31.8676 33.4807 31.8303 33.5552 31.7931Z" fill="#DBD1C7"/>
<path d="M26.9651 14.2939C28.9756 14.4056 30.7254 15.4853 31.6934 17.6447C32.6242 19.8041 32.2518 21.8145 30.7254 23.6388C30.6137 23.7505 30.5392 23.8622 30.4275 23.9367C30.1297 24.1601 29.8319 24.1228 29.534 23.8622C29.2734 23.6016 29.2362 23.3038 29.4223 23.0059C29.4968 22.8942 29.6085 22.7825 29.7202 22.6708C31.2094 20.9955 31.1349 18.4265 29.534 16.8629C27.8959 15.2992 25.3269 15.2992 23.6888 16.8629C22.0506 18.4638 21.9762 20.9955 23.4654 22.6708C23.5399 22.7453 23.6143 22.8198 23.6516 22.8942C23.9122 23.2293 23.9122 23.6016 23.6143 23.8622C23.3165 24.1228 22.9442 24.1228 22.6463 23.825C21.8273 23.0431 21.306 22.0752 21.0827 20.9582C20.4125 17.533 23.0931 14.2939 26.9651 14.2939Z" fill="#DBD1C7"/>
<path d="M28.6779 10.0864C28.6779 11.2405 27.7471 12.2085 26.5557 12.2085C25.4016 12.2085 24.4708 11.2778 24.4708 10.1236C24.4708 8.96946 25.4016 8.00146 26.593 8.00146C27.7471 8.00146 28.6779 8.93223 28.6779 10.0864ZM26.593 9.41623C26.2207 9.41623 25.9228 9.75131 25.9228 10.1236C25.9228 10.4959 26.2579 10.831 26.6302 10.7938C27.0025 10.7938 27.3376 10.4587 27.3004 10.0864C27.2631 9.71408 26.9653 9.379 26.593 9.41623Z" fill="#DBD1C7"/>
</svg>
