<svg width="54" height="39" viewBox="0 0 54 39" fill="none" xmlns="http://www.w3.org/2000/svg">
<path d="M4.38285 33.9749C5.31918 36.9203 7.18167 38.4112 9.78016 38.3299C11.827 38.2529 14.1236 36.8782 14.7304 34.0039H38.3853C38.6902 35.4556 39.4261 36.6358 40.6804 37.4676C41.5936 38.0749 42.6769 38.375 43.7724 38.3241C46.1445 38.2413 47.8995 36.7156 48.7357 33.9691C49.4267 33.9691 50.1308 33.9691 50.8363 33.9691C52.6857 33.956 53.9907 32.6626 53.9951 30.816C54.0038 27.604 54.0009 24.3924 53.9864 21.1813C53.9786 20.8407 53.8874 20.5072 53.7207 20.2101C51.5127 16.3153 49.2815 12.435 47.0721 8.54162C46.7818 8.03934 46.4275 7.8274 45.8498 7.83176C43.2731 7.85208 40.6964 7.84047 38.1211 7.84047H37.4751C37.4649 7.64159 37.4504 7.46884 37.4504 7.29464C37.4504 5.89668 37.4577 4.50017 37.4504 3.10367C37.4359 1.32392 36.128 0.00580668 34.3482 0.00435501C23.9339 -0.00145167 13.5192 -0.00145167 3.10393 0.00435501C1.32418 0.00435501 0.00606918 1.32247 0.0046196 3.10512C-0.0021553 12.3581 -0.0021553 21.6115 0.0046196 30.8654C0.0046196 32.6466 1.32418 33.9458 3.10393 33.9691C3.53217 33.9749 3.96477 33.9749 4.38285 33.9749ZM1.73791 24.3735V3.42158C1.73791 2.19928 2.18793 1.74781 3.40878 1.74781H34.0477C35.2599 1.74781 35.707 2.20218 35.707 3.4332V24.3735H1.73791ZM35.6794 32.2125H14.7637C13.8927 29.4457 12.1507 27.9461 9.75403 27.8837C8.65779 27.8418 7.5769 28.1516 6.66923 28.7677C5.43967 29.5981 4.71383 30.7725 4.41043 32.2329C3.97493 32.2329 3.58008 32.2329 3.18232 32.2329C2.25906 32.2183 1.74517 31.703 1.73936 30.7681C1.73211 29.5153 1.73936 28.264 1.73936 27.0112V26.1634H35.6794V32.2125ZM46.0864 10.4578H40.4481C39.432 10.4578 39.1837 10.709 39.1837 11.699V20.4613C39.1837 21.5442 39.416 21.7808 40.4786 21.7808H52.2154V22.6518C51.6492 22.6518 51.1251 22.6518 50.5996 22.6518C49.0652 22.6664 47.9024 23.7929 47.9024 25.2649C47.9024 26.7368 49.0638 27.8619 50.6011 27.8779C51.1397 27.8779 51.6782 27.8779 52.2487 27.8779C52.2487 28.9724 52.2734 30.0031 52.24 31.0323C52.2297 31.3371 52.106 31.6271 51.893 31.8454C51.6801 32.0637 51.3933 32.1946 51.0889 32.2125C50.2962 32.2532 49.5007 32.2227 48.7154 32.2227C48.0229 29.1045 45.5522 27.9069 43.6476 27.8793C41.0898 27.843 39.2244 29.3629 38.3679 32.1966H37.4969V9.58682C40.0228 9.58682 42.508 9.62166 44.9918 9.56505C45.6828 9.54908 45.8875 9.88877 46.0864 10.4578ZM51.6027 19.9996H40.9765V12.1998C42.961 12.1998 44.896 12.1998 46.8398 12.2114C46.9313 12.221 47.0196 12.2503 47.0986 12.2975C47.1775 12.3446 47.2453 12.4084 47.2971 12.4844C48.7284 14.958 50.1438 17.4476 51.6027 19.9996ZM40.0634 33.0908C40.0657 32.4022 40.272 31.7298 40.6562 31.1584C41.0405 30.587 41.5854 30.1422 42.2222 29.8803C42.859 29.6184 43.5592 29.551 44.2342 29.6868C44.9093 29.8225 45.529 30.1552 46.0151 30.643C46.5012 31.1307 46.8318 31.7515 46.9653 32.427C47.0988 33.1025 47.0291 33.8024 46.7651 34.4384C46.5011 35.0743 46.0545 35.6177 45.4818 36.0001C44.9091 36.3824 44.236 36.5864 43.5474 36.5864C43.0889 36.5864 42.6349 36.4959 42.2115 36.3201C41.788 36.1443 41.4034 35.8866 41.0798 35.5619C40.7561 35.2371 40.4997 34.8517 40.3253 34.4276C40.1509 34.0036 40.0619 33.5493 40.0634 33.0908ZM6.09437 33.0676C6.10155 32.3792 6.31253 31.7083 6.70066 31.1397C7.08879 30.5711 7.63667 30.1303 8.27515 29.8728C8.91364 29.6153 9.61408 29.5527 10.2881 29.693C10.9621 29.8333 11.5794 30.1701 12.0621 30.6609C12.5449 31.1518 12.8714 31.7746 13.0004 32.4509C13.1295 33.1271 13.0553 33.8264 12.7872 34.4605C12.5192 35.0946 12.0692 35.6351 11.4943 36.0137C10.9193 36.3923 10.245 36.5921 9.5566 36.5879C9.09784 36.585 8.64416 36.4916 8.2216 36.313C7.79903 36.1343 7.41591 35.874 7.09422 35.5469C6.77253 35.2198 6.51861 34.8324 6.34703 34.407C6.17545 33.9815 6.08958 33.5263 6.09437 33.0676ZM52.2328 26.1359C51.6144 26.1359 51.0395 26.1576 50.4661 26.1359C50.237 26.1391 50.016 26.0513 49.8517 25.8916C49.6874 25.7319 49.5933 25.5135 49.59 25.2845C49.5867 25.0554 49.6746 24.8344 49.8343 24.6701C49.9939 24.5058 50.2123 24.4116 50.4414 24.4084C51.0308 24.3764 51.6216 24.3997 52.2328 24.3997V26.1359Z" fill="#DBD1C7"/>
<path d="M40.9362 33.1355C40.9427 33.6536 41.1031 34.1582 41.397 34.5849C41.6909 35.0117 42.1051 35.3414 42.5869 35.5322C43.0687 35.723 43.5963 35.7662 44.1027 35.6564C44.6091 35.5466 45.0714 35.2887 45.4309 34.9155C45.7904 34.5423 46.0308 34.0706 46.1216 33.5605C46.2124 33.0503 46.1494 32.5246 45.9407 32.0503C45.732 31.5761 45.387 31.1745 44.9495 30.8968C44.512 30.619 44.0019 30.4776 43.4839 30.4906C42.7974 30.5099 42.146 30.7978 41.6696 31.2924C41.1932 31.787 40.9298 32.4488 40.9362 33.1355ZM43.5274 32.2326C43.7006 32.2279 43.8712 32.2751 44.0175 32.3679C44.1637 32.4608 44.279 32.5951 44.3485 32.7538C44.418 32.9125 44.4386 33.0883 44.4076 33.2588C44.3767 33.4293 44.2956 33.5866 44.1748 33.7108C44.054 33.8349 43.8988 33.9202 43.7293 33.9557C43.5597 33.9913 43.3834 33.9754 43.2229 33.9102C43.0624 33.8451 42.925 33.7335 42.8282 33.5898C42.7314 33.4461 42.6797 33.2768 42.6796 33.1036C42.6796 32.8765 42.7681 32.6584 42.9265 32.4957C43.0848 32.333 43.3005 32.2386 43.5274 32.2326Z" fill="#DBD1C7"/>
<path d="M9.58996 30.4908C9.07405 30.4877 8.56876 30.6374 8.13779 30.921C7.70681 31.2046 7.36945 31.6095 7.16821 32.0845C6.96698 32.5596 6.91088 33.0836 7.00698 33.5905C7.10309 34.0974 7.3471 34.5645 7.70826 34.9329C8.06942 35.3013 8.53157 35.5546 9.03645 35.6608C9.54133 35.767 10.0663 35.7213 10.5453 35.5296C11.0243 35.3379 11.4358 35.0086 11.7279 34.5834C12.0201 34.1581 12.1798 33.6559 12.187 33.1401C12.1918 32.7952 12.1283 32.4528 12.0001 32.1327C11.8719 31.8125 11.6817 31.5208 11.4402 31.2746C11.1988 31.0283 10.911 30.8322 10.5935 30.6977C10.2759 30.5632 9.93484 30.4928 9.58996 30.4908ZM9.60303 33.9748C9.42995 33.9805 9.25909 33.9346 9.11225 33.8428C8.96542 33.751 8.84929 33.6175 8.77869 33.4593C8.70809 33.3012 8.68624 33.1256 8.71591 32.955C8.74558 32.7844 8.82544 32.6265 8.94529 32.5015C9.06513 32.3765 9.21951 32.29 9.38872 32.2532C9.55793 32.2164 9.73428 32.2308 9.89525 32.2946C10.0562 32.3585 10.1945 32.4689 10.2924 32.6117C10.3903 32.7546 10.4435 32.9234 10.445 33.0965C10.4445 33.3231 10.3567 33.5407 10.1999 33.7043C10.0431 33.8678 9.82937 33.9647 9.60303 33.9748Z" fill="#DBD1C7"/>
</svg>
