<svg width="38" height="38" viewBox="0 0 38 38" fill="none" xmlns="http://www.w3.org/2000/svg">
<path d="M10.7471 16.2441C10.7471 16.072 10.7471 15.9343 10.7471 15.7967C10.7471 12.2863 10.7471 8.81035 10.7471 5.29998C10.7471 5.02465 10.8504 4.71492 10.988 4.50842C11.9517 3.1318 12.9153 1.7896 13.8789 0.412985C14.0854 0.103246 14.3263 0 14.7049 0C20.0737 0 25.4081 0 30.7769 0C31.1555 0 31.3964 0.137662 31.6029 0.412985C32.5665 1.7896 33.599 3.16622 34.5626 4.57725C34.7003 4.78375 34.7691 5.05907 34.7691 5.29998C34.7691 8.81035 34.7691 12.2863 34.7691 15.7967C34.7691 15.9343 34.7691 16.072 34.7691 16.2785C35.3197 15.8999 35.8704 15.7279 36.4899 15.8655C37.9009 16.2441 38.4171 17.9304 37.4191 18.9973C36.834 19.6168 36.2145 20.2019 35.5951 20.8213C35.4918 20.9246 35.3886 21.1311 35.3886 21.2687C35.5606 22.783 33.8399 24.1252 32.1879 22.9551C31.362 23.5746 30.5016 23.5746 29.6756 22.9551C28.8496 23.5746 27.9893 23.5746 27.1633 22.9551C25.8555 23.9187 24.1347 23.2993 23.9282 21.5096C23.8938 21.5096 23.825 21.4752 23.7906 21.4752C23.0334 21.4752 22.2763 21.4752 21.4503 21.4752C21.3815 22.2324 21.0373 22.8519 20.3146 23.196C19.5919 23.5402 18.9036 23.4025 18.2497 22.9207C17.4237 23.5402 16.5633 23.5402 15.7029 22.9207C14.877 23.5057 14.051 23.5402 13.1562 22.9207C12.6744 23.2648 12.1237 23.4713 11.5043 23.3337C10.7471 23.196 10.1276 22.4733 10.1276 21.5096C10.1276 21.1655 10.0244 20.9246 9.78349 20.6837C9.26725 20.2019 8.78544 19.6856 8.26921 19.1694C7.47765 18.3778 7.3744 17.3454 7.99388 16.5538C8.64778 15.7279 9.61141 15.5902 10.6095 16.1753C10.6439 16.2097 10.6783 16.2097 10.7471 16.2441ZM33.5646 5.71296C31.0178 5.71296 28.5055 5.71296 25.9587 5.71296C25.9587 5.88504 25.9587 6.0227 25.9587 6.16036C25.9587 7.8123 25.9587 9.46425 25.9587 11.1162C25.9587 11.9766 25.5458 12.2175 24.7886 11.8045C24.2036 11.5292 23.6529 11.2194 23.0678 10.9441C22.9302 10.8753 22.6893 10.8753 22.5516 10.9441C21.9666 11.2194 21.3815 11.5292 20.8308 11.8045C20.0737 12.1831 19.6607 11.9422 19.6607 11.0818C19.6607 9.42983 19.6607 7.74347 19.6607 6.09153C19.6607 5.95387 19.6607 5.81621 19.6607 5.67855C17.114 5.67855 14.6016 5.67855 12.0893 5.67855C12.0893 9.8084 12.0893 13.9038 12.0893 17.9304C12.5367 18.1025 12.9497 18.2746 13.3971 18.4467C14.2231 17.8616 15.049 17.896 15.875 18.4811C16.8387 17.8616 17.3549 17.8616 18.4218 18.4811C19.0757 17.9993 19.7984 17.8616 20.5555 18.2746C21.3127 18.6876 21.588 19.3759 21.588 20.2019C22.4484 20.2019 23.2743 20.2019 24.1003 20.2019C24.238 18.2402 25.4769 17.5863 27.3009 18.4811C28.1269 17.8616 28.9873 17.896 29.8133 18.4811C30.6737 17.8616 31.4996 17.8616 32.2912 18.4467C32.773 18.2746 33.186 18.1025 33.599 17.9649C33.5646 13.9383 33.5646 9.84282 33.5646 5.71296ZM12.64 4.40518C15.049 4.40518 17.3549 4.40518 19.7295 4.40518C19.8672 3.37271 20.0393 2.34025 20.1769 1.30779C20.1081 1.30779 20.1081 1.27337 20.0737 1.27337C18.3873 1.27337 16.7354 1.27337 15.049 1.27337C14.9458 1.27337 14.8426 1.3422 14.8081 1.41103C14.0854 2.37467 13.3971 3.37271 12.64 4.40518ZM32.9451 4.40518C32.1879 3.3383 31.4996 2.34025 30.7769 1.37662C30.7081 1.27337 30.536 1.27337 30.3983 1.27337C29.4347 1.27337 28.5055 1.27337 27.5419 1.27337C26.8535 1.27337 26.1652 1.27337 25.4081 1.27337C25.5458 2.34025 25.7178 3.37271 25.8555 4.43959C28.2302 4.40518 30.5704 4.40518 32.9451 4.40518ZM20.8997 5.71296C20.8997 7.26166 20.8997 8.77594 20.8997 10.359C21.3815 10.1181 21.7945 9.94606 22.2419 9.70515C22.6204 9.46424 22.9646 9.46424 23.3432 9.70515C23.7562 9.94606 24.2036 10.1526 24.651 10.359C24.651 8.77594 24.651 7.26166 24.651 5.71296C23.412 5.71296 22.173 5.71296 20.8997 5.71296ZM21.4503 1.27337C21.3127 2.34025 21.1406 3.37271 21.0029 4.40518C22.2075 4.40518 23.3776 4.40518 24.5821 4.40518C24.4445 3.3383 24.2724 2.30583 24.1347 1.27337C23.2399 1.27337 22.3795 1.27337 21.4503 1.27337ZM26.6126 20.7525C26.6126 20.4772 26.6126 20.2363 26.6126 19.961C26.5782 19.5824 26.3373 19.3415 25.9932 19.3071C25.649 19.3071 25.3737 19.548 25.3737 19.9265C25.3737 20.4428 25.3737 20.9934 25.3737 21.5096C25.3737 21.8882 25.649 22.1291 25.9932 22.1291C26.3373 22.1291 26.6126 21.8538 26.6471 21.4752C26.6126 21.2687 26.6126 20.9934 26.6126 20.7525ZM29.125 20.7869C29.125 20.5116 29.125 20.2707 29.125 19.9954C29.0905 19.6168 28.8152 19.3415 28.4711 19.3415C28.1269 19.3415 27.8516 19.6168 27.8516 19.9954C27.8516 20.5116 27.8516 21.0278 27.8516 21.5441C27.8516 21.9226 28.1269 22.198 28.5055 22.198C28.8496 22.198 29.0905 21.9226 29.125 21.5441C29.125 21.2687 29.125 21.0278 29.125 20.7869ZM30.3983 20.7525C30.3983 21.0278 30.3983 21.2687 30.3983 21.5441C30.4327 21.9226 30.6737 22.1635 31.0178 22.1635C31.362 22.1635 31.6373 21.9226 31.6373 21.5441C31.6717 21.0278 31.6373 20.4772 31.6373 19.961C31.6373 19.5824 31.362 19.3415 31.0178 19.3415C30.6737 19.3415 30.3983 19.6168 30.3983 19.9954C30.3983 20.2363 30.3983 20.4772 30.3983 20.7525ZM32.9451 20.7181C32.9451 20.959 32.9451 21.1999 32.9451 21.4408C32.9451 21.4752 32.9451 21.5096 32.9451 21.5096C32.9795 21.9226 33.2204 22.1635 33.599 22.1635C33.9431 22.1635 34.2184 21.9226 34.2184 21.5441C34.2184 21.0278 34.2184 20.4772 34.2184 19.961C34.2184 19.5824 33.9087 19.3415 33.599 19.3415C33.2548 19.3415 32.9795 19.6168 32.9795 19.961C32.9107 20.2019 32.9451 20.4772 32.9451 20.7181ZM20.2458 20.7869C20.2458 20.546 20.2458 20.2707 20.2458 20.0298C20.2458 19.9954 20.2458 19.961 20.2458 19.961C20.2114 19.5824 19.936 19.3415 19.5919 19.3415C19.2477 19.3415 18.9724 19.6168 18.9724 19.9954C18.9724 20.5116 18.9724 21.0278 18.9724 21.5441C18.9724 21.9571 19.2477 22.198 19.6263 22.198C19.9705 22.198 20.2114 21.9226 20.2458 21.5785C20.2802 21.2687 20.2458 21.0278 20.2458 20.7869ZM17.7335 20.7869C17.7335 20.546 17.7335 20.2707 17.7335 20.0298C17.7335 19.9954 17.7335 19.961 17.7335 19.961C17.699 19.6168 17.4237 19.3415 17.0796 19.3415C16.7698 19.3415 16.4945 19.5824 16.4601 19.9265C16.4257 20.4772 16.4257 20.9934 16.4601 21.5441C16.4601 21.9226 16.7354 22.1635 17.0796 22.1635C17.4237 22.1635 17.6646 21.8882 17.699 21.5441C17.7335 21.2687 17.7335 21.0278 17.7335 20.7869ZM12.6744 20.7525C12.6744 20.5116 12.6744 20.2707 12.6744 20.0298C12.6744 19.9954 12.6744 19.961 12.6744 19.961C12.64 19.5824 12.3991 19.3415 12.0549 19.3071C11.7107 19.3071 11.4354 19.548 11.4354 19.9265C11.4354 20.4428 11.4354 20.9934 11.4354 21.5096C11.4354 21.8882 11.7107 22.1291 12.0549 22.1291C12.3991 22.1291 12.6744 21.8882 12.7088 21.4752C12.6744 21.2687 12.6744 20.9934 12.6744 20.7525ZM15.1867 20.7869C15.1867 20.546 15.1867 20.3051 15.1867 20.0642C15.1867 20.0298 15.1867 19.9954 15.1867 19.9954C15.1523 19.6168 14.877 19.3415 14.5328 19.3415C14.1887 19.3415 13.9133 19.6168 13.9133 19.9954C13.9133 20.5116 13.9133 21.0278 13.9133 21.5441C13.9133 21.9571 14.1887 22.198 14.5672 22.198C14.9114 22.198 15.1867 21.9226 15.1867 21.5096C15.1867 21.2343 15.1867 21.0278 15.1867 20.7869ZM35.423 19.3415C35.8016 18.9629 36.1801 18.5843 36.5243 18.1714C36.7996 17.8616 36.7996 17.483 36.5243 17.2421C36.2834 17.0012 35.9048 17.0012 35.6295 17.2766C35.3886 17.483 35.1821 17.724 34.9412 17.9304C34.7347 18.1369 34.7347 18.3778 34.9068 18.6532C35.0788 18.8597 35.2509 19.0662 35.423 19.3415ZM10.1965 19.3071C10.3685 19.0662 10.575 18.8941 10.6783 18.6188C10.7471 18.4467 10.7471 18.1714 10.6439 17.9993C10.4374 17.724 10.1621 17.483 9.88673 17.2421C9.61141 17.0012 9.26725 17.0356 9.02635 17.2766C8.78544 17.5175 8.75102 17.8272 8.99193 18.1025C9.3705 18.5155 9.78349 18.8941 10.1965 19.3071Z" fill="#DBD1C7"/>
<path d="M15.8401 27.0509C15.8401 26.8444 15.8401 26.6723 15.8401 26.5346C15.8746 25.8807 16.3564 25.3989 17.0103 25.3301C17.1479 25.3301 17.2856 25.3301 17.3888 25.3301C23.5148 25.3301 29.6752 25.3301 35.8011 25.3301C36.9024 25.3301 37.3842 25.7775 37.3842 26.8788C37.3842 29.8729 37.3842 32.8671 37.3842 35.8612C37.3842 36.8937 36.9024 37.3411 35.8699 37.3411C30.4323 37.3411 24.9947 37.3411 19.557 37.3411C19.3505 37.3411 19.144 37.4787 18.9031 37.5476C18.5246 37.6852 18.1116 37.9261 17.733 37.9605C15.7713 37.995 13.7752 38.0294 11.7791 37.9605C10.7811 37.9261 9.81745 37.6164 8.8194 37.4787C8.13109 37.3755 7.44278 37.3755 6.72006 37.3411C6.61681 37.3411 6.47915 37.4099 6.37591 37.4787C5.99734 37.8573 5.54994 37.995 4.99929 37.995C4.24215 37.995 3.48501 37.995 2.69345 37.995C1.52333 37.995 0.800605 37.3411 0.662944 36.1709C0.456451 33.8651 0.249958 31.5593 0.00905043 29.219C-0.0941959 28.1177 0.697359 27.2573 1.79865 27.2229C2.89995 27.2229 4.00124 27.1885 5.13695 27.2229C5.51552 27.2573 5.89409 27.4638 6.27266 27.6015C6.44474 27.6703 6.65123 27.7392 6.82331 27.7047C8.78499 27.3606 10.7123 26.982 12.6395 26.6379C13.5343 26.4658 14.4291 26.7755 15.2895 26.9132C15.496 26.982 15.6337 27.0164 15.8401 27.0509ZM19.6603 36.0677C25.1667 36.0677 30.6388 36.0677 36.1108 36.0677C36.1108 32.9015 36.1108 29.7697 36.1108 26.6035C29.7784 26.6035 23.4804 26.6035 17.1479 26.6035C17.1479 29.1502 17.1479 31.6625 17.1479 34.1748C18.9031 34.3125 19.4538 34.7255 19.6603 36.0677ZM6.96097 35.9644C8.13109 36.1709 9.2668 36.343 10.4025 36.5151C10.9187 36.5839 11.4694 36.7216 12.02 36.7216C13.8785 36.756 15.7369 36.7216 17.5953 36.7216C18.0772 36.7216 18.3869 36.4807 18.3869 36.0677C18.3869 35.6547 18.1116 35.4482 17.5953 35.4482C16.4596 35.4482 15.2895 35.4482 14.1538 35.4482C13.6031 35.4482 13.3278 35.2073 13.3278 34.7943C13.3278 34.3813 13.6031 34.1748 14.1194 34.1748C14.67 34.1748 15.2551 34.1748 15.8057 34.1748C15.8057 32.2132 15.8057 30.2859 15.8057 28.3242C14.4979 28.0145 13.259 27.6359 11.9168 27.9801C11.3317 28.1177 10.7467 28.1866 10.1616 28.2898C9.09473 28.4963 8.02785 28.7372 6.96097 28.9437C6.96097 31.3872 6.96097 33.693 6.96097 35.9644ZM5.6876 32.6262C5.6876 31.4904 5.6876 30.3547 5.6876 29.219C5.6876 28.6684 5.51552 28.4963 4.96487 28.4963C3.96683 28.4963 2.96878 28.4963 1.97073 28.4963C1.38567 28.4963 1.21359 28.7028 1.28242 29.2879C1.38567 30.2515 1.48891 31.2151 1.59216 32.1443C1.72982 33.4521 1.86748 34.7255 2.00515 36.0333C2.07398 36.5151 2.24605 36.6872 2.76229 36.6872C3.51943 36.6872 4.27657 36.6872 5.0337 36.6872C5.54994 36.6872 5.75643 36.5151 5.75643 35.9644C5.6876 34.8976 5.6876 33.7619 5.6876 32.6262Z" fill="#DBD1C7"/>
<path d="M26.6129 27.8765C28.3336 27.8765 30.0544 27.8765 31.7752 27.8765C32.1882 27.8765 32.4291 28.0141 32.6011 28.3927C32.9453 29.081 33.4959 29.494 34.2187 29.7005C34.7349 29.8381 34.8726 30.0102 34.8726 30.5265C34.8726 31.1115 34.8726 31.6966 34.8726 32.2816C34.8726 32.6946 34.7005 32.9355 34.3219 33.0388C33.5304 33.2453 32.9453 33.6927 32.6011 34.4154C32.4635 34.7251 32.2226 34.8628 31.8784 34.8628C28.4025 34.8628 24.9265 34.8628 21.4161 34.8628C21.072 34.8628 20.8311 34.7251 20.6934 34.4154C20.3493 33.6927 19.7642 33.2109 18.9726 33.0388C18.5941 32.9355 18.3876 32.6946 18.3876 32.2816C18.3876 31.6622 18.3876 31.0771 18.3876 30.4576C18.3876 30.0446 18.5596 29.8037 18.9382 29.7005C19.7298 29.494 20.3148 29.0466 20.659 28.3239C20.8311 28.0141 21.072 27.8765 21.4161 27.8765C23.1369 27.8765 24.8577 27.8765 26.6129 27.8765ZM33.5304 30.8018C32.7388 30.492 32.1193 29.9758 31.6375 29.2875C31.5687 29.2187 31.431 29.1498 31.3278 29.1498C28.196 29.1498 25.0298 29.1498 21.8979 29.1498C21.7947 29.1498 21.6226 29.2187 21.5882 29.2875C21.1064 30.0102 20.4525 30.492 19.6609 30.8018C19.6609 31.0427 19.6609 31.2492 19.6609 31.4901C19.6265 31.7654 19.7298 31.9031 19.9707 32.0063C20.6246 32.2816 21.1064 32.729 21.5194 33.3141C21.6226 33.4518 21.7947 33.555 21.9668 33.555C25.0642 33.555 28.1616 33.555 31.2589 33.555C31.3966 33.555 31.5687 33.4518 31.7063 33.3141C32.1193 32.97 32.4291 32.4537 32.8765 32.2472C33.5992 31.9375 33.668 31.4557 33.5304 30.8018Z" fill="#DBD1C7"/>
<path d="M4.41412 34.8629C4.41412 35.207 4.10438 35.4824 3.76023 35.4824C3.41607 35.4824 3.14075 35.1726 3.14075 34.8285C3.14075 34.4843 3.45049 34.209 3.79464 34.209C4.1388 34.209 4.41412 34.5187 4.41412 34.8629Z" fill="#DBD1C7"/>
<path d="M28.1958 31.3522C28.1958 32.2125 27.473 32.9353 26.6127 32.9353C25.7523 32.9353 25.0295 32.2125 25.0295 31.3522C25.0295 30.4918 25.7523 29.769 26.6127 29.769C27.473 29.769 28.1958 30.4918 28.1958 31.3522ZM27.06 31.3522C26.8191 31.2145 26.6815 31.0424 26.5782 31.0768C26.475 31.0768 26.3029 31.2489 26.3029 31.3522C26.3029 31.4554 26.475 31.6275 26.5782 31.6275C26.7159 31.6619 26.8191 31.4898 27.06 31.3522Z" fill="#DBD1C7"/>
</svg>
