<svg width="43" height="38" viewBox="0 0 43 38" fill="#DBD1C7" xmlns="http://www.w3.org/2000/svg">
<path d="M21.3254 38C21.2559 37.9992 21.1875 37.9828 21.1252 37.9521C21.0543 37.9154 20.9948 37.8598 20.9533 37.7914C20.9119 37.7231 20.89 37.6447 20.8902 37.5648V25.0692C20.8893 25.0169 20.8997 24.9649 20.9207 24.9169L21.3254 23.8593C21.8986 22.3275 22.5883 20.842 23.3884 19.4156C23.4369 19.3287 23.5138 19.2611 23.606 19.2241L26.7005 17.988C26.7555 17.964 26.8147 17.9517 26.8746 17.9517C26.9346 17.9517 26.9938 17.964 27.0487 17.988C27.1035 18.0138 27.1524 18.0507 27.1921 18.0964C27.2318 18.1421 27.2615 18.1956 27.2794 18.2535L31.1051 30.8187C31.1319 30.9063 31.1304 31.0003 31.1007 31.087C31.071 31.1738 31.0147 31.2489 30.9397 31.3018L21.5779 37.9217C21.5039 37.9733 21.4157 38.0007 21.3254 38ZM21.7607 25.1476V36.7248L30.1781 30.7708L26.583 18.9716L24.0717 19.977C23.324 21.3231 22.6766 22.7225 22.135 24.1639L21.7607 25.1476Z" fill="#DBD1C7"/>
<path d="M0.434073 37.9956C0.359038 37.9954 0.285328 37.9759 0.2201 37.9388C0.154872 37.9017 0.100341 37.8483 0.0617998 37.784C0.0232587 37.7196 0.00201704 37.6463 0.000136704 37.5713C-0.00174363 37.4963 0.0158012 37.4221 0.0510683 37.3559L9.13873 20.3992C9.1902 20.3035 9.27558 20.2305 9.37811 20.1946L15.6672 17.9836C15.7417 17.9589 15.8214 17.9547 15.898 17.9716C15.9746 17.9884 16.0453 18.0257 16.1025 18.0794C16.1599 18.1343 16.2012 18.2039 16.222 18.2806C16.2427 18.3573 16.242 18.4383 16.22 18.5146L12.3812 31.0711C12.3679 31.1267 12.3438 31.1792 12.3102 31.2255C12.2765 31.2718 12.2341 31.311 12.1854 31.3409L0.651689 37.9391C0.585359 37.9767 0.510316 37.9962 0.434073 37.9956ZM9.83945 20.9606L1.53956 36.4288L11.5978 30.6489L15.1232 19.0935L9.83945 20.9606Z" fill="#DBD1C7"/>
<path d="M21.2036 37.9998C21.1134 38.0005 21.0252 37.9731 20.9512 37.9215L11.585 31.3016C11.51 31.2487 11.4537 31.1736 11.424 31.0868C11.3943 31.0001 11.3927 30.9061 11.4196 30.8185L15.2322 18.2838C15.2501 18.2259 15.2798 18.1724 15.3195 18.1267C15.3593 18.081 15.4081 18.044 15.4629 18.0183C15.5178 17.9943 15.5771 17.9819 15.637 17.9819C15.6969 17.9819 15.7562 17.9943 15.8111 18.0183L19.1493 19.324C19.2439 19.3613 19.3224 19.4306 19.3713 19.5198C20.04 20.7229 20.6218 21.9723 21.1122 23.2585L21.6127 24.5903C21.6304 24.6391 21.6393 24.6907 21.6388 24.7426V37.5646C21.639 37.6445 21.6172 37.7229 21.5757 37.7912C21.5342 37.8596 21.4748 37.9152 21.4038 37.9519C21.3419 37.9837 21.2732 38.0001 21.2036 37.9998ZM12.3466 30.7706L20.7684 36.7246V24.8123L20.294 23.5544C19.8455 22.3578 19.3132 21.1943 18.701 20.0726L15.946 18.9714L12.3466 30.7706Z" fill="#DBD1C7"/>
<path d="M42.2164 37.9957C42.1401 37.9963 42.0651 37.9767 41.9988 37.9392L30.4651 31.341C30.3694 31.2866 30.2978 31.198 30.2649 31.0929L26.4435 18.5234C26.4215 18.4471 26.4208 18.3661 26.4416 18.2894C26.4623 18.2127 26.5036 18.1431 26.5611 18.0882C26.6182 18.0345 26.6889 17.9972 26.7655 17.9804C26.8421 17.9635 26.9219 17.9677 26.9963 17.9924L33.2549 20.2034C33.3575 20.2393 33.4428 20.3123 33.4943 20.408L42.5907 37.3821C42.6198 37.4466 42.6328 37.5173 42.6284 37.588C42.624 37.6587 42.6024 37.7272 42.5655 37.7877C42.5287 37.8482 42.4776 37.8987 42.4167 37.935C42.3559 37.9712 42.2871 37.9921 42.2164 37.9957ZM31.0527 30.6534L41.1152 36.4289L32.8154 20.9607L27.5273 19.0936L31.0527 30.6534Z" fill="#DBD1C7"/>
<path d="M21.3255 25.5045C21.2366 25.5048 21.1497 25.4778 21.0766 25.4272C21.0034 25.3766 20.9475 25.3049 20.9164 25.2216L20.294 23.5633C18.9989 20.2016 17.117 17.0966 14.7361 14.393C13.6505 13.1355 12.9474 11.5936 12.7098 9.94933C12.4723 8.3051 12.7102 6.62723 13.3955 5.11387C14.0808 3.6005 15.1849 2.31485 16.5773 1.40875C17.9698 0.502636 19.5924 0.0139139 21.2537 0.000292702C22.9149 -0.0133285 24.5453 0.44872 25.9525 1.33187C27.3596 2.21503 28.4846 3.4824 29.1946 4.98432C29.9046 6.48625 30.17 8.15999 29.9595 9.80789C29.7489 11.4558 29.0712 13.009 28.0063 14.2842C25.5045 17.2224 23.5179 20.5628 22.1307 24.164L21.7303 25.2216C21.6994 25.3042 21.6442 25.3755 21.5719 25.426C21.4996 25.4765 21.4137 25.5039 21.3255 25.5045ZM21.3255 0.874651H20.9947C19.5231 0.936213 18.0986 1.41141 16.8847 2.24571C15.6709 3.08001 14.7168 4.23961 14.132 5.59147C13.5471 6.94333 13.3553 8.43268 13.5784 9.88862C13.8015 11.3446 14.4305 12.7081 15.3933 13.8228C17.8391 16.6061 19.775 19.7988 21.1123 23.2543L21.3255 23.8288C22.7493 20.1478 24.7827 16.7328 27.3404 13.7271C28.5127 12.3172 29.1561 10.5424 29.1597 8.70884C29.1597 6.63108 28.3343 4.63843 26.8651 3.16923C25.3959 1.70004 23.4033 0.874651 21.3255 0.874651Z" fill="#DBD1C7"/>
<path d="M21.3252 14.6934C20.1406 14.6934 18.9825 14.3421 17.9976 13.6838C17.0126 13.0256 16.245 12.09 15.7919 10.9954C15.3387 9.90087 15.2204 8.6965 15.4518 7.53467C15.6833 6.37283 16.2541 5.30574 17.092 4.46836C17.93 3.63099 18.9975 3.06095 20.1595 2.83037C21.3215 2.59978 22.5258 2.719 23.6201 3.17294C24.7143 3.62689 25.6493 4.39517 26.3069 5.38059C26.9644 6.36602 27.3149 7.52432 27.314 8.70898C27.3106 10.2958 26.6784 11.8167 25.5559 12.9383C24.4334 14.06 22.9121 14.6911 21.3252 14.6934ZM21.3252 3.59064C20.3129 3.59064 19.3233 3.89083 18.4816 4.45324C17.6399 5.01565 16.9839 5.81502 16.5965 6.75027C16.2091 7.68553 16.1077 8.71466 16.3052 9.70752C16.5027 10.7004 16.9902 11.6124 17.706 12.3282C18.4218 13.044 19.3338 13.5315 20.3267 13.729C21.3196 13.9265 22.3487 13.8251 23.2839 13.4377C24.2192 13.0503 25.0186 12.3943 25.581 11.5526C26.1434 10.7109 26.4436 9.72129 26.4436 8.70898C26.4413 7.35222 25.9013 6.05168 24.9419 5.09231C23.9825 4.13293 22.682 3.59294 21.3252 3.59064Z" fill="#DBD1C7"/>
</svg>
