<svg width="15" height="15" viewBox="0 0 15 15" fill="none" xmlns="http://www.w3.org/2000/svg">
<path d="M7.15876 7.84095C7.14327 8.0424 7.14327 8.21285 7.11227 8.38331C7.03479 8.89467 6.60091 9.26657 6.08955 9.26657C5.60917 9.28207 5.1288 9.26657 4.66393 9.26657C4.0286 9.26657 3.57922 8.81719 3.56372 8.18186C3.56372 8.07339 3.56372 7.96492 3.56372 7.84095C3.48624 7.84095 3.42426 7.84095 3.36227 7.84095C2.43252 7.84095 1.50277 7.84095 0.573016 7.84095C0.511033 7.84095 0.449049 7.84095 0.387066 7.84095C0.216611 7.82546 0.0771484 7.6705 0.0771484 7.50004C0.0771484 7.31409 0.201115 7.15913 0.387066 7.14364C0.449049 7.14364 0.511033 7.14364 0.573016 7.14364C1.50277 7.14364 2.43252 7.14364 3.34678 7.14364C3.40876 7.14364 3.47074 7.14364 3.56372 7.14364C3.56372 7.03517 3.56372 6.94219 3.56372 6.84922C3.57922 6.1674 4.0131 5.71802 4.69492 5.71802C5.1443 5.71802 5.57818 5.71802 6.02756 5.71802C6.69388 5.71802 7.14327 6.1674 7.15876 6.83372C7.15876 6.9267 7.15876 7.03517 7.15876 7.14364C7.25174 7.14364 7.31372 7.14364 7.3757 7.14364C9.74657 7.14364 12.1019 7.14364 14.4728 7.14364C14.5503 7.14364 14.6123 7.14364 14.6898 7.14364C14.8602 7.15913 14.9997 7.31409 14.9997 7.48455C14.9997 7.6705 14.8757 7.82546 14.6898 7.84095C14.6278 7.84095 14.5503 7.84095 14.4728 7.84095C12.1174 7.84095 9.74657 7.84095 7.3912 7.84095C7.31372 7.84095 7.23624 7.84095 7.15876 7.84095ZM6.43045 7.50004C6.43045 7.2676 6.43045 7.03517 6.43045 6.80273C6.43045 6.58579 6.29099 6.43083 6.07405 6.43083C5.59368 6.41533 5.11331 6.41533 4.64843 6.43083C4.43149 6.43083 4.29203 6.58579 4.29203 6.80273C4.29203 7.2676 4.29203 7.73248 4.29203 8.19736C4.29203 8.4143 4.43149 8.56926 4.64843 8.56926C5.1288 8.58475 5.60917 8.58475 6.07405 8.56926C6.29099 8.56926 6.43045 8.4143 6.43045 8.19736C6.43045 7.96492 6.43045 7.73248 6.43045 7.50004Z" fill="#B9B1AD"/>
<path d="M7.84091 12.8615C7.85641 12.66 7.85641 12.4741 7.8874 12.3036C7.96488 11.8077 8.38326 11.4513 8.87913 11.4358C9.3595 11.4203 9.83988 11.4358 10.3357 11.4358C10.9866 11.4358 11.4359 11.8852 11.4514 12.536C11.4514 12.6445 11.4514 12.7375 11.4514 12.877C11.5444 12.877 11.6064 12.877 11.6684 12.877C12.5981 12.877 13.5279 12.877 14.4421 12.877C14.5041 12.877 14.5661 12.877 14.6281 12.877C14.814 12.8925 14.938 13.0474 14.938 13.2179C14.938 13.3883 14.814 13.5433 14.6436 13.5743C14.5816 13.5898 14.5351 13.5743 14.4731 13.5743C13.5279 13.5743 12.5981 13.5743 11.6529 13.5743C11.5909 13.5743 11.5289 13.5743 11.436 13.5743C11.436 13.6827 11.436 13.7757 11.436 13.8687C11.4205 14.5505 10.9711 14.9999 10.2893 14.9999C9.83988 14.9999 9.40599 14.9999 8.95661 14.9999C8.30579 14.9999 7.85641 14.535 7.84091 13.8842C7.84091 13.7912 7.84091 13.6827 7.84091 13.5743C7.76343 13.5743 7.68595 13.5743 7.62397 13.5743C5.2531 13.5743 2.89773 13.5743 0.526859 13.5743C0.480372 13.5743 0.418388 13.5743 0.371901 13.5743C0.154959 13.5588 0.0154959 13.4193 0 13.2334C0 13.0319 0.139463 12.877 0.356405 12.877C0.418388 12.877 0.480372 12.877 0.526859 12.877C2.88223 12.877 5.2376 12.877 7.59298 12.877C7.70145 12.8615 7.76343 12.8615 7.84091 12.8615ZM8.58471 13.2179C8.58471 13.4503 8.58471 13.6827 8.58471 13.9152C8.58471 14.1476 8.70868 14.2871 8.94112 14.2871C9.42149 14.3026 9.90186 14.3026 10.3667 14.2871C10.5837 14.2871 10.7231 14.1476 10.7231 13.9152C10.7231 13.4503 10.7231 12.9854 10.7231 12.5206C10.7231 12.2881 10.5837 12.1487 10.3512 12.1487C9.88636 12.1487 9.42149 12.1487 8.95661 12.1487C8.72417 12.1487 8.58471 12.2881 8.58471 12.5206C8.56921 12.753 8.58471 12.9854 8.58471 13.2179Z" fill="#B9B1AD"/>
<path d="M12.8771 1.41012C13.4039 1.41012 13.8998 1.41012 14.3957 1.41012C14.7211 1.41012 14.8915 1.53409 14.8915 1.76653C14.8915 1.99897 14.7211 2.12293 14.3957 2.12293C13.8998 2.12293 13.3884 2.12293 12.8616 2.12293C12.8616 2.23141 12.8616 2.32438 12.8616 2.43285C12.8461 3.11467 12.4122 3.56405 11.7304 3.56405C11.281 3.56405 10.8471 3.56405 10.3977 3.56405C9.73141 3.56405 9.28203 3.11467 9.28203 2.44835C9.28203 2.35537 9.28203 2.2469 9.28203 2.13843C9.18905 2.13843 9.11157 2.13843 9.03409 2.13843C6.19835 2.13843 3.3781 2.13843 0.542355 2.13843C0.464876 2.13843 0.387397 2.13843 0.309917 2.13843C0.123967 2.12293 0 1.98347 0 1.79752C0 1.61157 0.123967 1.45661 0.309917 1.44112C0.371901 1.44112 0.433884 1.44112 0.495868 1.44112C3.34711 1.44112 6.19835 1.44112 9.04959 1.44112C9.11157 1.44112 9.18905 1.44112 9.26653 1.44112C9.28203 1.23967 9.28203 1.06922 9.31302 0.883265C9.3905 0.371901 9.82438 0.0154959 10.3357 0C10.8006 0 11.281 0 11.7459 0C12.3967 0 12.8461 0.44938 12.8616 1.10021C12.8771 1.17769 12.8771 1.27066 12.8771 1.41012ZM12.1488 1.76653C12.1488 1.53409 12.1488 1.30165 12.1488 1.06921C12.1488 0.836777 12.0093 0.697314 11.7769 0.697314C11.312 0.697314 10.8316 0.697314 10.3667 0.697314C10.1343 0.697314 10.0103 0.836777 10.0103 1.06921C10.0103 1.53409 10.0103 1.99897 10.0103 2.46384C10.0103 2.71178 10.1498 2.83574 10.3977 2.85124C10.8626 2.85124 11.312 2.85124 11.7769 2.85124C12.0093 2.85124 12.1488 2.69628 12.1488 2.46384C12.1643 2.21591 12.1488 1.99897 12.1488 1.76653Z" fill="#B9B1AD"/>
</svg>
