<svg width="14" height="22" viewBox="0 0 14 22" fill="none" xmlns="http://www.w3.org/2000/svg">
<path d="M7.08643 0C7.29782 0.0301972 7.5092 0.0603948 7.75077 0.090592C9.01906 0.271775 10.1062 0.785128 11.0725 1.63065C12.2804 2.65736 13.0353 3.95584 13.3071 5.4959C13.5788 6.97556 13.3675 8.42503 12.6729 9.7839C10.7101 13.6491 8.74728 17.5144 6.75427 21.3796C6.75427 21.4098 6.72407 21.44 6.69387 21.4702C6.66367 21.44 6.66367 21.4098 6.63348 21.3494C4.64046 17.454 2.64744 13.5586 0.684621 9.66311C0.14107 8.60621 -0.0703093 7.45872 0.0202824 6.25083C0.141071 4.46919 0.865804 2.95933 2.19448 1.75144C3.1306 0.87572 4.2177 0.362367 5.48598 0.120789C5.72756 0.0603944 5.99933 0.0603946 6.24091 0.0301973C6.27111 0.0301973 6.30131 0.0301972 6.3315 0C6.57308 0 6.84486 0 7.08643 0ZM10.7403 6.70379C10.7403 4.49939 8.95866 2.68755 6.72407 2.68755C4.48947 2.68755 2.67764 4.46919 2.67764 6.70379C2.67764 8.90818 4.48947 10.72 6.69387 10.72C8.92847 10.7502 10.7403 8.93838 10.7403 6.70379Z" fill="#B9B1AD"/>
</svg>
