<svg width="9" height="14" viewBox="0 0 9 14" fill="none" xmlns="http://www.w3.org/2000/svg">
<path d="M4.58775 0C4.7246 0.0195497 4.86144 0.0390995 5.01784 0.0586492C5.83893 0.175947 6.54272 0.508291 7.1683 1.05568C7.95029 1.72037 8.43903 2.561 8.61498 3.55804C8.79093 4.51597 8.65408 5.45435 8.20444 6.33409C6.93371 8.83644 5.66298 11.3388 4.3727 13.8412C4.3727 13.8607 4.35315 13.8803 4.3336 13.8998C4.31405 13.8803 4.31405 13.8607 4.2945 13.8216C3.00423 11.2997 1.71395 8.77779 0.443223 6.25589C0.0913288 5.57165 -0.0455182 4.82876 0.0131308 4.04678C0.0913294 2.89335 0.56052 1.91587 1.42071 1.13388C2.02674 0.56694 2.73053 0.234596 3.55162 0.0781985C3.70802 0.0390992 3.88396 0.0390994 4.04036 0.0195497C4.05991 0.0195497 4.07946 0.0195497 4.09901 0C4.25541 0 4.43135 0 4.58775 0ZM6.95326 4.34002C6.95326 2.9129 5.79983 1.73992 4.35315 1.73992C2.90648 1.73992 1.7335 2.89335 1.7335 4.34002C1.7335 5.76715 2.90648 6.94013 4.3336 6.94013C5.78028 6.95968 6.95326 5.7867 6.95326 4.34002Z" fill="#DBD1C7"/>
</svg>
