<svg width="14" height="9" viewBox="0 0 14 9" fill="none" xmlns="http://www.w3.org/2000/svg">
<path d="M0.110526 0.528076C0.34386 0.724568 0.564913 0.921059 0.785966 1.10527C2.28421 2.38246 3.78246 3.65966 5.26843 4.92457C5.57545 5.18247 5.88246 5.45264 6.20176 5.72282C6.65615 6.10352 7.2579 6.10352 7.70001 5.72282C9.32106 4.3351 10.9421 2.95966 12.5755 1.57194C12.9562 1.24036 13.3491 0.921059 13.7298 0.58948C13.7421 0.577199 13.7667 0.564918 13.7912 0.540357C13.8772 0.675445 13.9018 0.822814 13.9018 0.970182C13.9018 1.36317 13.9018 1.75615 13.9018 2.14913C13.9018 3.81931 13.9018 5.48949 13.9018 7.17194C13.9018 7.29475 13.9018 7.41756 13.8895 7.52809C13.8404 8.0316 13.4228 8.40002 12.9193 8.40002C12.207 8.40002 11.507 8.40002 10.7948 8.40002C9.24738 8.40002 7.70001 8.40002 6.15264 8.40002C4.47018 8.40002 2.77544 8.40002 1.09298 8.40002C0.945615 8.40002 0.785966 8.38774 0.638597 8.33861C0.245614 8.20353 0 7.84738 0 7.42984C0 6.0544 0 4.67896 0 3.30352C0 2.52983 0 1.75615 0 0.982463C0 0.835094 0.0368422 0.687725 0.110526 0.528076Z" fill="#DBD1C7"/>
<path d="M0.589844 0.0859651C0.724932 0.0245615 0.847739 0 0.982827 0C1.69511 0 2.39511 0 3.10739 0C4.6302 0 6.15301 0 7.66354 0C9.38284 0 11.0899 0 12.8092 0C12.9197 0 13.0302 4.66642e-08 13.1285 0.0122808C13.1899 0.0245615 13.2513 0.0491229 13.3127 0.0614036C13.3249 0.0736843 13.3249 0.0859649 13.3372 0.0982456C13.3127 0.110526 13.2881 0.122807 13.2635 0.135088C11.8267 1.36316 10.4021 2.57895 8.96529 3.80702C8.41266 4.27369 7.86003 4.74036 7.3074 5.21931C7.09862 5.39123 6.80389 5.40352 6.6074 5.21931C5.18283 4.00351 3.77055 2.8 2.34599 1.58421C1.78107 1.10526 1.21616 0.626317 0.651247 0.147369C0.638967 0.122807 0.614405 0.110527 0.589844 0.0859651Z" fill="#DBD1C7"/>
</svg>
