<svg width="22" height="14" viewBox="0 0 22 14" fill="none" xmlns="http://www.w3.org/2000/svg">
<path d="M0.170724 1.28003C0.531141 1.58354 0.872589 1.88705 1.21404 2.17159C3.52829 4.1444 5.84255 6.11721 8.13784 8.07105C8.61207 8.4694 9.08631 8.88673 9.57951 9.30405C10.2814 9.8921 11.2109 9.8921 11.8938 9.30405C14.3977 7.16052 16.9017 5.03596 19.4246 2.89242C20.0126 2.38025 20.6197 1.88705 21.2077 1.37488C21.2267 1.35591 21.2646 1.33694 21.3025 1.299C21.4353 1.50766 21.4733 1.73529 21.4733 1.96293C21.4733 2.56994 21.4733 3.17696 21.4733 3.78398C21.4733 6.36381 21.4733 8.94364 21.4733 11.5424C21.4733 11.7321 21.4733 11.9218 21.4543 12.0925C21.3784 12.8703 20.7335 13.4394 19.9557 13.4394C18.8555 13.4394 17.7743 13.4394 16.674 13.4394C14.2839 13.4394 11.8938 13.4394 9.50363 13.4394C6.90483 13.4394 4.28707 13.4394 1.68827 13.4394C1.46064 13.4394 1.21404 13.4204 0.986405 13.3445C0.379387 13.1359 0 12.5857 0 11.9408C0 9.81623 0 7.69166 0 5.5671C0 4.37203 0 3.17696 0 1.98189C0 1.75426 0.056908 1.52663 0.170724 1.28003Z" fill="#B9B1AD"/>
<path d="M0.911133 0.597141C1.1198 0.502294 1.30949 0.464355 1.51815 0.464355C2.61837 0.464355 3.69962 0.464355 4.79984 0.464355C7.15204 0.464355 9.50424 0.464355 11.8375 0.464355C14.4932 0.464355 17.1299 0.464355 19.7856 0.464355C19.9563 0.464355 20.1271 0.464356 20.2788 0.483325C20.3737 0.502294 20.4685 0.540233 20.5633 0.559202C20.5823 0.578171 20.5823 0.597141 20.6013 0.61611C20.5633 0.635079 20.5254 0.654049 20.4875 0.673018C18.2681 2.56995 16.0676 4.44791 13.8482 6.34485C12.9946 7.06568 12.141 7.78651 11.2874 8.52632C10.9649 8.79189 10.5096 8.81086 10.2061 8.52632C8.00566 6.64835 5.82419 4.78936 3.62375 2.9114C2.75116 2.17159 1.87857 1.43179 1.00598 0.691987C0.98701 0.654049 0.949071 0.63508 0.911133 0.597141Z" fill="#B9B1AD"/>
</svg>
