<svg width="10" height="18" viewBox="0 0 10 18" fill="none" xmlns="http://www.w3.org/2000/svg">
<path d="M1.66626 18C1.29548 17.9196 0.951508 17.7945 0.661141 17.5354C0.272497 17.187 0.0402044 16.7671 0.00893421 16.2399C0.00446704 16.1595 0.00446677 16.0746 0.00446677 15.9942C0.00446677 11.3305 0.00893435 6.66678 0 2.00752C0 1.33297 0.241227 0.787978 0.781756 0.381465C1.09446 0.149172 1.44736 0.00622262 1.84048 0.00622262C3.92218 0.00175544 5.99941 -0.00717898 8.08112 0.0106897C9.03263 0.0196241 9.82332 0.819248 9.86799 1.77076C9.87246 1.8467 9.87246 1.92264 9.87246 1.99858C9.86799 6.68018 9.86799 11.3573 9.86352 16.0389C9.86352 16.9368 9.35426 17.656 8.5457 17.9062C8.42509 17.9419 8.30001 17.9687 8.17493 18C5.99942 18 3.83284 18 1.66626 18ZM1.00065 2.67759C1.00065 6.8544 1.00065 11.0178 1.00065 15.1767C3.67202 15.1767 6.32999 15.1767 8.98795 15.1767C8.98795 11.0044 8.98795 6.84547 8.98795 2.67759C6.31658 2.67759 3.66755 2.67759 1.00065 2.67759ZM4.88709 17.4371C5.34721 17.4416 5.72692 17.0708 5.73585 16.6107C5.74479 16.1506 5.35614 15.7575 4.89602 15.7575C4.44037 15.7575 4.06066 16.1372 4.05619 16.5973C4.05173 17.053 4.43144 17.4327 4.88709 17.4371ZM4.94963 1.68588C5.22659 1.68588 5.49909 1.68588 5.77606 1.68588C5.98601 1.68588 6.11109 1.5742 6.11109 1.40892C6.11109 1.23916 5.98601 1.12748 5.78052 1.12748C5.23106 1.12302 4.6816 1.12302 4.13214 1.12748C3.92218 1.12748 3.80157 1.2347 3.7971 1.40445C3.7971 1.57867 3.91771 1.68588 4.12767 1.68588C4.40017 1.69035 4.67713 1.68588 4.94963 1.68588ZM3.48886 1.41338C3.48886 1.26597 3.35931 1.13642 3.20743 1.13642C3.06001 1.14088 2.9394 1.25703 2.93493 1.40445C2.93047 1.55633 3.05555 1.68588 3.20743 1.68588C3.35931 1.69035 3.48886 1.56527 3.48886 1.41338Z" fill="#DBD1C7"/>
</svg>
