<svg width="13" height="14" viewBox="0 0 13 14" fill="none" xmlns="http://www.w3.org/2000/svg">
<path d="M7.80547 13.6156C7.6522 13.6003 7.49894 13.5849 7.34568 13.5543C6.79393 13.447 6.28817 13.2324 5.79773 12.9412C4.29576 12.0676 3.10032 10.8722 2.13476 9.44686C1.44508 8.43533 0.878013 7.34717 0.494857 6.18237C0.264964 5.49269 0.0963756 4.77236 0.0350707 4.0367C-0.010908 3.53094 -0.026234 3.0405 0.0810495 2.53473C0.264964 1.70712 0.724751 1.04809 1.3991 0.55765C1.70563 0.327757 2.02748 0.159168 2.39531 0.0518847C2.6252 -0.00942021 2.8551 -0.0247464 3.08499 0.0518847C3.37619 0.143842 3.57543 0.343083 3.71336 0.618955C3.9126 1.01744 4.05054 1.44657 4.17315 1.87571C4.26511 2.21288 4.34174 2.56539 4.41837 2.91789C4.44902 3.05582 4.4337 3.20909 4.41837 3.36235C4.38772 3.60757 4.23446 3.77616 4.03521 3.91409C3.80532 4.06735 3.5601 4.17464 3.29956 4.28192C3.08499 4.37388 2.88575 4.45051 2.67118 4.54247C2.50259 4.6191 2.44129 4.75704 2.48727 4.94095C2.94705 6.30498 3.62141 7.54641 4.47967 8.69587C4.93946 9.30892 5.4299 9.86067 5.98164 10.3818C6.15023 10.5503 6.33415 10.535 6.47208 10.3511C6.7173 10.0446 6.96252 9.75338 7.28437 9.53882C7.48361 9.40088 7.71351 9.27827 7.97405 9.27827C8.14264 9.26295 8.31123 9.30892 8.44917 9.40088C9.15417 9.83002 9.8132 10.3358 10.3496 10.9795C10.4569 11.1021 10.5335 11.24 10.6102 11.378C10.7634 11.6845 10.7481 11.991 10.5948 12.2822C10.4262 12.6041 10.1657 12.8493 9.8745 13.0485C9.38407 13.401 8.83232 13.6003 8.2346 13.6462C8.21927 13.6462 8.18862 13.6616 8.1733 13.6616C8.08134 13.6156 7.9434 13.6156 7.80547 13.6156Z" fill="#DBD1C7"/>
<path d="M12.5567 6.27428C12.5567 6.71874 12.5108 7.13255 12.4341 7.54636C12.3728 7.83756 12.1276 8.0368 11.8364 8.0368C11.5452 8.0368 11.2847 7.83756 11.2387 7.54636C11.2234 7.4544 11.2234 7.34712 11.254 7.23983C11.5146 5.79917 11.208 4.48111 10.3344 3.31632C9.59878 2.32012 8.60258 1.70707 7.40713 1.44652C7.11593 1.38522 6.90137 1.14 6.90137 0.848799C6.90137 0.557601 7.08528 0.312381 7.37648 0.23575C7.52974 0.189772 7.683 0.23575 7.83627 0.281729C10.1352 0.833473 11.8977 2.64197 12.4341 4.95623C12.5108 5.40069 12.5567 5.84515 12.5567 6.27428Z" fill="#DBD1C7"/>
<path d="M10.5181 6.48875C10.5181 6.79527 10.4874 7.08647 10.4261 7.37767C10.3648 7.68419 10.0889 7.89876 9.78242 7.86811C9.46057 7.83746 9.21535 7.60756 9.20003 7.28571C9.20003 7.20908 9.21535 7.11712 9.23068 7.04049C9.36862 6.19755 9.21535 5.41591 8.74024 4.71091C8.26513 4.0059 7.6061 3.54611 6.76316 3.3622C6.47196 3.30089 6.28805 3.10165 6.24207 2.82578C6.18076 2.41197 6.54859 2.05947 6.9624 2.15143C8.2498 2.4273 9.23068 3.13231 9.90503 4.25112C10.3188 4.9408 10.5181 5.69179 10.5181 6.48875Z" fill="#DBD1C7"/>
<path d="M8.46464 6.67273C8.43398 6.85665 8.43398 7.02524 8.38801 7.20915C8.3267 7.531 7.98952 7.74557 7.683 7.68427C7.34582 7.60764 7.13126 7.30111 7.19256 6.96393C7.3305 6.2436 6.93201 5.61523 6.38027 5.37001C6.27299 5.32403 6.1657 5.29338 6.05842 5.26272C5.78255 5.18609 5.59863 4.94087 5.59863 4.665C5.59863 4.3738 5.79787 4.14391 6.07375 4.06728C6.21168 4.03662 6.33429 4.06728 6.4569 4.09793C7.63702 4.40445 8.44931 5.47729 8.46464 6.67273Z" fill="#DBD1C7"/>
</svg>
