<svg width="20" height="22" viewBox="0 0 20 22" fill="none" xmlns="http://www.w3.org/2000/svg">
<path d="M12.0567 21.0312C11.8199 21.0076 11.5832 20.9839 11.3464 20.9365C10.4942 20.7708 9.71298 20.4394 8.95542 19.9896C6.63542 18.6402 4.78888 16.7937 3.29745 14.592C2.23214 13.0296 1.35622 11.3487 0.764378 9.54956C0.409275 8.48425 0.148866 7.37159 0.0541717 6.23526C-0.0168489 5.45404 -0.0405222 4.69648 0.125193 3.91526C0.409275 2.63689 1.11948 1.61892 2.16112 0.86137C2.63459 0.506267 3.13173 0.245858 3.6999 0.0801433C4.055 -0.0145509 4.4101 -0.0382244 4.76521 0.0801433C5.215 0.222185 5.52276 0.52994 5.73582 0.956064C6.04358 1.57158 6.25664 2.23444 6.44603 2.89729C6.58807 3.41811 6.70644 3.9626 6.8248 4.50709C6.87215 4.72016 6.84848 4.95689 6.8248 5.19363C6.77746 5.5724 6.54072 5.83281 6.23297 6.04588C5.87786 6.28261 5.49909 6.44833 5.09663 6.61404C4.76521 6.75608 4.45745 6.87445 4.12602 7.01649C3.86561 7.13486 3.77092 7.34792 3.84194 7.632C4.55214 9.73895 5.59378 11.6565 6.9195 13.432C7.6297 14.379 8.38726 15.2312 9.2395 16.0361C9.49991 16.2965 9.784 16.2728 9.99706 15.9888C10.3758 15.5153 10.7546 15.0655 11.2518 14.7341C11.5595 14.521 11.9146 14.3316 12.3171 14.3316C12.5775 14.3079 12.8379 14.379 13.0509 14.521C14.1399 15.1839 15.1579 15.9651 15.9865 16.9594C16.1522 17.1488 16.2705 17.3618 16.3889 17.5749C16.6256 18.0484 16.602 18.5218 16.3652 18.9716C16.1048 19.4688 15.7024 19.8475 15.2526 20.1553C14.495 20.6998 13.6428 21.0076 12.7195 21.0786C12.6958 21.0786 12.6485 21.1022 12.6248 21.1022C12.4828 21.0312 12.2697 21.0312 12.0567 21.0312Z" fill="#B9B1AD"/>
<path d="M19.3957 9.69151C19.3957 10.378 19.3247 11.0172 19.2063 11.6564C19.1116 12.1062 18.7328 12.414 18.283 12.414C17.8332 12.414 17.4308 12.1062 17.3598 11.6564C17.3361 11.5144 17.3361 11.3487 17.3834 11.1829C17.7859 8.95763 17.3124 6.92171 15.963 5.12252C14.8267 3.58374 13.2879 2.63679 11.4414 2.23434C10.9916 2.13965 10.6602 1.76087 10.6602 1.31108C10.6602 0.861279 10.9442 0.482502 11.394 0.364134C11.6308 0.293114 11.8675 0.364135 12.1042 0.435155C15.6553 1.2874 18.3777 4.08088 19.2063 7.65558C19.3247 8.34212 19.3957 9.02865 19.3957 9.69151Z" fill="#B9B1AD"/>
<path d="M16.2466 10.0229C16.2466 10.4964 16.1993 10.9462 16.1046 11.396C16.0099 11.8694 15.5838 12.2009 15.1103 12.1535C14.6132 12.1062 14.2344 11.7511 14.2107 11.2539C14.2107 11.1355 14.2344 10.9935 14.2581 10.8751C14.4711 9.5731 14.2344 8.36575 13.5005 7.27676C12.7666 6.18778 11.7487 5.47757 10.4466 5.19349C9.99682 5.0988 9.71274 4.79104 9.64172 4.36492C9.54703 3.72573 10.1152 3.18124 10.7544 3.32328C12.743 3.74941 14.2581 4.83839 15.2997 6.56656C15.9389 7.63187 16.2466 8.79187 16.2466 10.0229Z" fill="#B9B1AD"/>
<path d="M13.0749 10.3071C13.0276 10.5911 13.0276 10.8515 12.9565 11.1356C12.8618 11.6328 12.341 11.9642 11.8676 11.8695C11.3467 11.7511 11.0153 11.2777 11.11 10.7569C11.3231 9.64419 10.7075 8.67358 9.8553 8.2948C9.68959 8.22378 9.52387 8.17643 9.35816 8.12909C8.93203 8.01072 8.64795 7.63194 8.64795 7.20582C8.64795 6.75602 8.95571 6.40092 9.38183 6.28255C9.59489 6.2352 9.78428 6.28255 9.97367 6.3299C11.7965 6.80337 13.0512 8.46052 13.0749 10.3071Z" fill="#B9B1AD"/>
</svg>
