<svg width="39" height="38" viewBox="0 0 39 38" fill="none" xmlns="http://www.w3.org/2000/svg">
<path d="M0 14.6212V5.86321C0.619742 4.33983 1.12166 4.0077 2.80368 4.0077C5.59932 4.0077 8.39466 4.0077 11.1897 4.0077C11.3621 4.00274 11.5344 4.02147 11.7018 4.06336C11.848 4.09986 11.9772 4.18551 12.0677 4.30595C12.1583 4.42638 12.2046 4.57428 12.1991 4.72485C12.2074 5.06812 12.0441 5.32511 11.7102 5.42995C11.5432 5.47432 11.3706 5.4937 11.198 5.48747C8.29106 5.49118 5.38409 5.49118 2.47711 5.48747C1.74233 5.48747 1.48534 5.73982 1.48441 6.46161C1.48441 7.7481 1.48441 9.0346 1.48441 10.3211V10.6644H36.5165V6.53769C36.5165 5.72683 36.2846 5.49211 35.483 5.49211C33.5533 5.49211 31.6235 5.49211 29.6947 5.49211C29.1715 5.49211 28.8542 5.20172 28.8505 4.7564C28.8468 4.31107 29.1622 4.01419 29.6854 4.01419C31.7145 4.00862 33.7425 3.99749 35.7715 4.01419C37.0361 4.02625 37.9824 4.96143 37.9926 6.22875C38.0136 8.88832 38.0136 11.5479 37.9926 14.2075C37.9815 15.3208 37.4814 16.2318 36.6009 16.9174C36.5221 16.9714 36.4588 17.0451 36.4174 17.1313C36.376 17.2174 36.3581 17.3129 36.3653 17.4082C36.3709 23.6428 36.3724 29.877 36.3699 36.1109V36.5256C36.7206 36.5256 37.0194 36.5042 37.3116 36.5256C37.4985 36.5399 37.673 36.6243 37.8002 36.762C37.9274 36.8997 37.9978 37.0804 37.9972 37.2678C37.9886 37.4488 37.9153 37.6208 37.7907 37.7524C37.6661 37.884 37.4984 37.9665 37.3181 37.985C37.2195 37.9949 37.1203 37.9983 37.0212 37.9952C25.0105 37.9952 13 37.9967 0.989917 37.9998C0.519544 37.9998 0.173491 37.8616 0.00185556 37.4014V37.0303C0.355331 36.3326 1.02981 36.5562 1.63471 36.4959V36.1897C1.63471 29.9101 1.63162 23.6298 1.62543 17.3488C1.61083 17.1882 1.5339 17.0397 1.41112 16.9351C0.733671 16.4041 0.262808 15.6534 0.0797872 14.8124C0.0584153 14.7466 0.0317316 14.6827 0 14.6212ZM34.8744 32.6568H22.7115C21.9071 32.6568 21.6724 32.4221 21.6724 31.6168V21.5228C21.6724 20.7166 21.9053 20.4847 22.7124 20.4847H34.866V17.6494C33.4048 17.8118 32.1319 17.4639 31.1736 16.2773C30.3479 17.2533 29.3422 17.6875 28.112 17.6847C26.8818 17.6819 25.8854 17.2264 25.0847 16.2829C24.2673 17.2496 23.2617 17.6866 22.0315 17.6856C20.8012 17.6847 19.8048 17.2292 18.9968 16.281C18.1868 17.2505 17.1802 17.6847 15.9509 17.6847C14.7217 17.6847 13.7243 17.2347 12.9357 16.307C10.7416 18.2005 9.05398 18.2005 6.80046 16.307C5.85786 17.4787 4.58312 17.8118 3.14695 17.6494V36.4978H5.64076V21.5275C5.64076 20.7185 5.8727 20.4847 6.67614 20.4847H17.6237C18.4846 20.4847 18.7036 20.7018 18.7036 21.5572V36.4857H34.8744V32.6568ZM7.14651 21.9765V36.4913H17.1904V21.9765H7.14651ZM34.867 21.9951H23.1865V31.153H34.867V21.9951ZM31.952 12.1905C31.952 12.9466 31.9362 13.6842 31.9612 14.4171C31.9827 14.6387 32.0527 14.8528 32.1663 15.0443C32.6682 15.985 33.5032 16.2504 34.507 16.1817C35.4088 16.1205 36.2373 15.5592 36.3996 14.6806C36.549 13.8688 36.5128 13.0236 36.5583 12.1868L31.952 12.1905ZM30.4221 12.1998H25.8288V13.7445C25.8288 15.4052 26.7166 16.2569 28.3708 16.1854C29.4841 16.1372 30.3442 15.3347 30.4119 14.2251C30.4546 13.5636 30.4202 12.8947 30.4202 12.2016L30.4221 12.1998ZM19.7584 12.1905C19.7584 12.9123 19.7399 13.6035 19.7687 14.2928C19.7878 14.5526 19.8615 14.8055 19.9848 15.035C20.4663 15.9628 21.2837 16.2495 22.2764 16.1938C23.3229 16.1353 24.1783 15.4516 24.2943 14.4208C24.3759 13.6926 24.31 12.9485 24.31 12.1942L19.7584 12.1905ZM13.6686 12.1905C13.6686 12.903 13.6482 13.5822 13.6798 14.2594C13.6981 14.5303 13.7733 14.7943 13.9006 15.0341C14.3812 15.9618 15.1994 16.2476 16.1931 16.191C17.2257 16.1326 18.0783 15.4655 18.1998 14.4515C18.2926 13.7093 18.2174 12.9559 18.2174 12.1905H13.6686ZM12.162 12.2016H7.5705V13.7464C7.5705 15.4071 8.45836 16.2587 10.1126 16.1873C11.2259 16.1391 12.0859 15.3375 12.1536 14.2279C12.1963 13.5636 12.162 12.8956 12.162 12.2016ZM1.50389 12.1905C1.50389 12.9188 1.48627 13.622 1.5141 14.3244C1.5336 14.5706 1.60506 14.81 1.72377 15.0267C2.20528 15.9544 3.01707 16.2457 4.01348 16.191C5.06184 16.1326 5.91724 15.4488 6.03506 14.4218C6.11763 13.6935 6.05083 12.9485 6.05083 12.1952L1.50389 12.1905Z" fill="#DBD1C7"/>
<path d="M21.0787 0C21.7281 0.179985 22.3414 0.418419 22.8071 0.937035C23.8898 2.14312 23.874 3.81308 22.7143 5.01917C21.6363 6.14268 20.5295 7.24022 19.4087 8.32291C18.5107 9.19129 17.4326 9.43622 16.2627 8.98255C15.1596 8.55021 14.538 7.69296 14.4174 6.50636C14.3246 5.58974 14.6577 4.80485 15.2988 4.15635C16.3759 3.06531 17.4679 1.98911 18.5459 0.900853C19.0237 0.419347 19.6194 0.172563 20.2567 0H21.0787ZM17.4966 4.18697C17.0476 4.60353 16.5689 4.97927 16.1737 5.43295C15.7256 5.95342 15.8026 6.71975 16.259 7.23465C16.7025 7.73193 17.4651 7.91006 18.0078 7.52411C18.5506 7.13816 19.008 6.63254 19.4987 6.18443L17.4966 4.18697ZM20.5582 5.03401C20.9655 4.63971 21.3997 4.26954 21.7755 3.84648C22.2672 3.28983 22.2263 2.49196 21.7319 1.95478C21.2374 1.41761 20.4089 1.29422 19.855 1.76274C19.3911 2.15611 19.0135 2.65617 18.6146 3.09129L20.5582 5.03401Z" fill="#DBD1C7"/>
<path d="M9.20342 27.7946C9.20342 26.8436 9.20342 25.8927 9.20342 24.9417C9.20006 24.782 9.22294 24.6228 9.27115 24.4704C9.32385 24.3351 9.41617 24.2189 9.53602 24.137C9.65587 24.0551 9.79766 24.0112 9.94284 24.0112C10.088 24.0112 10.2298 24.0551 10.3497 24.137C10.4695 24.2189 10.5618 24.3351 10.6145 24.4704C10.6617 24.6105 10.6846 24.7577 10.6823 24.9055C10.686 26.8563 10.686 28.8077 10.6823 30.7597C10.6823 31.2236 10.5051 31.5121 10.1785 31.6179C9.66359 31.783 9.20899 31.4323 9.20249 30.8339C9.196 29.818 9.20342 28.8077 9.20342 27.7946Z" fill="#DBD1C7"/>
<path d="M10.6823 33.7502C10.6745 33.9412 10.5927 34.1216 10.4544 34.2536C10.3161 34.3855 10.1319 34.4585 9.94075 34.4573C9.7496 34.4561 9.56638 34.3808 9.42971 34.2471C9.29304 34.1135 9.2136 33.932 9.20813 33.7409C9.216 33.5499 9.29772 33.3694 9.43606 33.2375C9.5744 33.1056 9.75856 33.0325 9.94971 33.0337C10.1409 33.0349 10.3241 33.1103 10.4608 33.2439C10.5974 33.3776 10.6769 33.5591 10.6823 33.7502Z" fill="#DBD1C7"/>
<path d="M15.5801 29.2295C15.5825 29.375 15.5416 29.5179 15.4628 29.6402C15.3839 29.7625 15.2706 29.8586 15.1371 29.9165C15.0036 29.9744 14.8559 29.9913 14.7128 29.9653C14.5696 29.9393 14.4374 29.8713 14.3328 29.7702C14.2283 29.669 14.1561 29.5391 14.1254 29.3968C14.0946 29.2546 14.1068 29.1065 14.1602 28.9712C14.2137 28.8358 14.3061 28.7194 14.4257 28.6366C14.5453 28.5538 14.6868 28.5083 14.8323 28.5059C15.0254 28.5096 15.2098 28.5863 15.3486 28.7206C15.4873 28.8548 15.57 29.0367 15.5801 29.2295Z" fill="#DBD1C7"/>
<path d="M28.274 25.8288C28.274 25.1794 28.274 24.5866 28.274 23.9947C28.2786 23.4538 28.5709 23.1161 29.0162 23.1216C29.4615 23.1272 29.7482 23.4631 29.7538 24.0086C29.7603 24.5996 29.7538 25.1905 29.7538 25.8288C30.3939 25.8288 31.0072 25.8233 31.6204 25.8288C32.0945 25.8344 32.3904 26.0719 32.4387 26.4653C32.4981 26.9505 32.1845 27.2919 31.639 27.3077C31.1454 27.3216 30.6509 27.3077 30.1546 27.3077H29.7519C29.7519 27.9413 29.7575 28.5425 29.7519 29.1437C29.7454 29.6568 29.4875 29.9694 29.0672 30C28.6117 30.0334 28.2842 29.7282 28.2731 29.2263C28.2601 28.6001 28.2731 27.9729 28.2731 27.3077C27.6236 27.3077 27.0067 27.316 26.3934 27.3077C25.8832 27.2984 25.5519 26.9867 25.5584 26.5534C25.5649 26.1202 25.8924 25.8353 26.3795 25.8288C26.9974 25.8186 27.6134 25.8288 28.274 25.8288Z" fill="#DBD1C7"/>
</svg>
