<svg width="28" height="28" viewBox="0 0 28 28" fill="none" xmlns="http://www.w3.org/2000/svg">
<path d="M20.0506 18.4066C22.2723 20.6278 24.4883 22.8432 26.7099 25.0643C27.0583 25.4126 27.4296 25.7495 27.7437 26.1263C28.2063 26.6802 28.0178 27.5138 27.3782 27.8507C26.8642 28.1191 26.3844 28.0277 25.9161 27.5595C23.4545 25.0986 20.9872 22.6376 18.5257 20.171C18.4457 20.091 18.3658 20.0168 18.2915 19.9426C13.5683 23.7225 6.62335 23.22 2.59118 18.3667C-0.978373 14.0728 -0.96695 7.60929 3.29367 3.31548C7.46862 -0.886978 14.2651 -1.20673 18.8398 3.00143C23.089 6.90126 23.7401 13.519 19.9478 18.2867C19.9878 18.3381 20.0163 18.3724 20.0506 18.4066ZM2.35702 10.744C2.08859 15.9343 6.16645 20.0796 11.1695 20.1082C16.0184 20.1367 20.062 16.3111 20.102 11.2807C20.142 6.37596 16.2069 2.37906 11.2381 2.35622C6.41774 2.35622 2.59689 6.12472 2.35702 10.744Z" fill="#EEEEEE"/>
</svg>
